<svg id="svg" version="1.1" xmlns="http://www.w3.org/2000/svg" xmlns:xlink="http://www.w3.org/1999/xlink" width="400" height="400" viewBox="0, 0, 400,400"><g id="svgg"><path id="path0" d="M243.472 21.588 C 239.649 23.118,237.049 25.212,235.800 27.767 C 235.494 28.394,235.118 29.151,234.964 29.450 C 234.412 30.529,234.116 34.022,234.392 36.217 C 234.642 38.208,234.839 38.838,235.676 40.313 C 235.822 40.570,236.038 40.992,236.156 41.250 C 236.275 41.508,236.520 41.871,236.701 42.058 C 236.883 42.245,237.523 43.010,238.125 43.759 C 238.727 44.508,239.931 45.973,240.802 47.014 C 243.295 49.995,248.509 57.091,248.966 58.125 C 249.080 58.383,249.260 58.664,249.366 58.750 C 250.353 59.548,257.188 71.766,257.188 72.732 C 257.188 72.948,257.300 73.125,257.437 73.125 C 257.575 73.125,257.872 73.652,258.098 74.297 C 258.502 75.449,258.914 76.456,259.844 78.563 C 260.102 79.147,260.313 79.822,260.313 80.063 C 260.313 80.303,260.429 80.634,260.572 80.797 C 260.715 80.960,261.082 82.008,261.388 83.125 C 261.694 84.242,262.055 85.438,262.191 85.781 C 262.327 86.125,262.667 87.672,262.947 89.219 C 263.227 90.766,263.603 92.691,263.783 93.497 C 264.149 95.133,264.244 106.953,263.896 107.516 C 263.774 107.713,263.557 108.670,263.414 109.641 C 263.144 111.467,262.430 114.804,262.132 115.625 C 262.039 115.883,261.717 116.867,261.418 117.813 C 261.119 118.758,260.668 120.023,260.416 120.625 C 260.164 121.227,259.842 122.000,259.701 122.344 C 258.842 124.432,255.451 130.900,255.031 131.250 C 254.723 131.507,254.057 132.617,253.861 133.203 C 253.760 133.504,253.562 133.750,253.422 133.750 C 253.282 133.750,253.086 134.006,252.986 134.320 C 252.887 134.633,252.560 135.161,252.260 135.492 C 251.959 135.823,251.443 136.516,251.113 137.031 C 250.479 138.021,247.185 142.111,245.325 144.219 C 242.012 147.972,231.456 158.145,228.511 160.422 C 228.041 160.786,227.164 161.529,226.563 162.075 C 225.961 162.620,223.219 164.846,220.469 167.022 C 217.719 169.197,215.219 171.180,214.915 171.429 C 214.610 171.678,213.345 172.640,212.102 173.568 C 208.079 176.574,207.554 177.097,208.281 177.373 C 208.625 177.504,208.977 177.698,209.063 177.804 C 209.148 177.910,210.555 178.830,212.188 179.847 C 213.820 180.865,215.203 181.808,215.260 181.943 C 215.318 182.077,215.484 182.187,215.629 182.188 C 215.774 182.188,219.102 184.339,223.025 186.968 C 226.947 189.597,230.316 191.845,230.512 191.964 C 230.786 192.131,236.052 188.441,236.875 187.505 C 236.961 187.408,237.664 186.841,238.438 186.246 C 239.211 185.652,240.023 184.994,240.242 184.785 C 240.461 184.575,241.305 183.870,242.117 183.218 C 242.929 182.565,243.664 181.959,243.750 181.871 C 243.836 181.783,245.523 180.309,247.500 178.596 C 256.127 171.118,265.351 161.899,270.677 155.431 C 274.105 151.268,275.368 149.624,276.965 147.246 C 277.853 145.925,278.657 144.773,278.753 144.688 C 278.987 144.477,280.714 141.706,281.576 140.156 C 282.526 138.449,284.071 135.636,284.578 134.688 C 284.808 134.258,284.997 133.730,284.998 133.516 C 284.999 133.301,285.141 133.125,285.313 133.125 C 285.484 133.125,285.625 132.912,285.625 132.652 C 285.625 132.392,285.761 131.935,285.927 131.636 C 286.294 130.976,287.259 128.676,287.795 127.188 C 288.011 126.586,288.300 125.813,288.436 125.469 C 288.572 125.125,288.888 124.211,289.138 123.438 C 289.388 122.664,289.762 121.507,289.970 120.866 C 290.178 120.225,290.487 118.960,290.656 118.054 C 290.826 117.148,291.082 115.844,291.225 115.156 C 292.148 110.735,292.308 108.753,292.300 101.875 C 292.291 94.032,292.009 91.429,290.441 84.688 C 290.181 83.570,289.887 82.234,289.789 81.719 C 289.690 81.203,289.502 80.641,289.372 80.469 C 289.241 80.297,289.040 79.664,288.924 79.063 C 288.808 78.461,288.591 77.688,288.441 77.344 C 288.291 77.000,287.655 75.313,287.028 73.594 C 285.392 69.108,284.841 67.839,282.275 62.656 C 280.092 58.247,279.012 56.258,277.186 53.281 C 276.447 52.078,275.491 50.461,275.062 49.688 C 274.632 48.914,274.196 48.211,274.093 48.125 C 273.990 48.039,273.063 46.703,272.031 45.156 C 271.000 43.609,269.980 42.157,269.764 41.929 C 269.548 41.701,269.212 41.217,269.018 40.855 C 268.824 40.492,268.542 40.046,268.391 39.863 C 268.241 39.681,267.699 38.969,267.187 38.281 C 266.676 37.594,266.149 36.891,266.016 36.719 C 264.783 35.123,261.370 30.714,261.177 30.469 C 258.611 27.197,254.279 22.813,253.613 22.813 C 253.373 22.813,253.130 22.707,253.073 22.578 C 252.604 21.522,245.474 20.787,243.472 21.588 M119.063 40.504 C 118.633 40.585,117.930 40.801,117.500 40.983 C 111.854 43.385,109.698 46.413,108.295 53.906 C 108.006 55.453,107.646 57.211,107.495 57.813 C 107.345 58.414,106.994 60.313,106.715 62.031 C 106.436 63.750,106.143 65.508,106.064 65.938 C 103.280 81.113,103.681 102.282,107.027 116.719 C 107.305 117.922,107.659 119.486,107.812 120.194 C 108.096 121.505,109.540 126.210,110.007 127.344 C 110.148 127.688,110.509 128.672,110.809 129.531 C 111.108 130.391,111.471 131.227,111.614 131.391 C 111.758 131.554,111.875 131.862,111.875 132.075 C 111.875 132.745,114.295 137.898,116.651 142.247 C 118.228 145.158,118.570 145.758,118.753 145.938 C 118.841 146.023,119.189 146.621,119.527 147.266 C 119.865 147.910,120.251 148.438,120.384 148.438 C 120.516 148.438,120.625 148.583,120.625 148.760 C 120.625 149.166,126.143 156.764,128.107 159.063 C 128.914 160.008,129.917 161.200,130.334 161.712 C 131.265 162.853,140.742 172.354,142.035 173.442 C 142.549 173.875,144.023 175.150,145.313 176.276 C 148.211 178.808,152.431 182.165,157.344 185.848 C 161.135 188.690,163.236 190.170,168.905 193.989 C 170.624 195.147,172.171 196.207,172.343 196.345 C 173.114 196.965,177.936 200.000,178.149 200.000 C 178.279 200.000,178.432 200.110,178.490 200.245 C 178.547 200.379,179.930 201.324,181.563 202.344 C 183.195 203.364,184.578 204.308,184.635 204.443 C 184.693 204.577,184.939 204.687,185.182 204.688 C 185.426 204.688,185.625 204.796,185.625 204.929 C 185.625 205.062,186.152 205.447,186.797 205.785 C 187.441 206.124,188.039 206.480,188.125 206.578 C 188.211 206.676,189.406 207.448,190.781 208.293 C 192.156 209.138,193.328 209.938,193.385 210.071 C 193.443 210.204,193.677 210.312,193.906 210.312 C 194.135 210.312,194.370 210.421,194.427 210.553 C 194.484 210.685,195.305 211.272,196.250 211.859 C 198.467 213.234,208.858 220.091,209.063 220.313 C 209.148 220.407,209.641 220.748,210.156 221.072 C 212.577 222.591,223.359 230.546,224.375 231.563 C 224.461 231.648,225.164 232.230,225.938 232.856 C 226.711 233.481,227.645 234.255,228.014 234.574 C 228.382 234.894,229.601 235.930,230.723 236.875 C 232.847 238.664,241.537 247.334,243.439 249.560 C 244.595 250.914,244.832 251.210,246.554 253.439 C 247.152 254.211,247.721 254.914,247.821 255.000 C 247.920 255.086,248.486 255.859,249.079 256.719 C 249.671 257.578,250.243 258.352,250.349 258.438 C 251.737 259.564,260.312 275.768,260.313 277.264 C 260.313 277.497,260.428 277.821,260.570 277.984 C 260.711 278.148,261.097 279.125,261.428 280.156 C 261.758 281.188,262.107 282.102,262.203 282.188 C 262.365 282.332,262.940 284.422,263.322 286.250 C 263.411 286.680,263.610 287.313,263.763 287.656 C 264.019 288.231,264.266 289.330,264.996 293.125 C 265.145 293.898,265.422 295.656,265.611 297.031 C 265.800 298.406,266.120 300.164,266.321 300.938 C 266.570 301.894,266.700 306.593,266.726 315.625 C 266.755 325.802,266.861 329.198,267.182 330.156 C 270.317 339.528,281.870 342.353,288.874 335.460 C 290.485 333.875,292.187 330.965,292.187 329.797 C 292.187 329.462,292.317 329.054,292.475 328.891 C 293.383 327.955,293.419 302.949,292.520 297.188 C 292.346 296.070,292.059 294.031,291.882 292.656 C 291.705 291.281,291.428 289.453,291.265 288.594 C 290.632 285.237,290.026 282.288,289.725 281.094 C 289.552 280.406,289.254 279.141,289.062 278.281 C 288.870 277.422,288.597 276.438,288.456 276.094 C 288.314 275.750,287.951 274.625,287.649 273.594 C 287.347 272.563,286.994 271.438,286.864 271.094 C 286.735 270.750,286.390 269.766,286.097 268.906 C 285.624 267.513,285.357 266.835,284.380 264.531 C 284.234 264.188,283.927 263.422,283.698 262.831 C 281.303 256.653,273.776 244.092,268.770 237.918 C 262.458 230.133,257.426 224.910,249.853 218.281 C 248.675 217.250,247.488 216.189,247.215 215.923 C 246.942 215.657,245.826 214.743,244.735 213.892 C 243.644 213.040,242.229 211.922,241.591 211.406 C 240.355 210.408,239.353 209.634,237.344 208.131 C 236.656 207.616,235.936 207.064,235.743 206.904 C 235.550 206.744,234.285 205.830,232.931 204.874 C 231.577 203.918,230.324 203.017,230.148 202.871 C 229.972 202.725,229.409 202.337,228.898 202.009 C 228.387 201.680,227.828 201.298,227.656 201.160 C 226.961 200.600,220.933 196.508,218.594 195.007 C 217.219 194.125,214.617 192.436,212.813 191.255 C 211.008 190.074,206.789 187.387,203.438 185.284 C 200.086 183.180,197.273 181.371,197.188 181.262 C 197.102 181.154,195.695 180.234,194.063 179.219 C 192.430 178.203,191.023 177.295,190.938 177.202 C 190.654 176.892,189.541 176.235,188.984 176.048 C 188.684 175.947,188.438 175.771,188.438 175.656 C 188.438 175.541,187.980 175.178,187.422 174.849 C 186.863 174.519,186.266 174.139,186.094 174.004 C 185.922 173.869,183.461 172.117,180.625 170.111 C 176.072 166.889,169.530 162.004,168.562 161.102 C 168.372 160.926,167.530 160.219,166.691 159.531 C 153.088 148.395,141.822 133.695,136.872 120.625 C 136.644 120.023,136.357 119.391,136.234 119.219 C 136.110 119.047,135.907 118.414,135.781 117.813 C 135.656 117.211,135.452 116.578,135.328 116.406 C 135.111 116.106,134.331 113.540,133.760 111.250 C 133.610 110.648,133.319 109.523,133.113 108.750 C 132.693 107.172,132.407 105.526,131.643 100.313 C 130.669 93.663,130.973 75.325,132.163 68.906 C 132.323 68.047,132.685 65.938,132.969 64.219 C 133.253 62.500,133.613 60.602,133.770 60.000 C 135.349 53.934,135.204 50.573,133.208 46.977 C 130.546 42.181,124.600 39.459,119.063 40.504 M167.643 206.975 C 166.777 207.694,165.483 208.751,164.768 209.325 C 164.053 209.899,163.173 210.625,162.813 210.937 C 162.452 211.250,161.577 211.976,160.868 212.550 C 150.410 221.020,137.279 233.575,131.832 240.313 C 131.206 241.086,130.389 242.070,130.016 242.500 C 129.643 242.930,129.038 243.629,128.672 244.054 C 123.675 249.866,116.399 262.095,113.143 270.156 C 113.004 270.500,112.719 271.203,112.509 271.719 C 112.032 272.893,111.472 274.618,110.783 277.031 C 110.489 278.063,110.128 279.258,109.980 279.688 C 109.584 280.844,108.847 284.607,108.114 289.219 C 107.595 292.485,107.585 306.174,108.100 309.531 C 108.641 313.067,108.957 314.838,109.490 317.344 C 110.182 320.597,111.171 324.504,111.546 325.469 C 111.680 325.813,112.032 326.867,112.328 327.813 C 112.623 328.758,112.979 329.813,113.118 330.156 C 113.258 330.500,113.610 331.484,113.903 332.344 C 114.195 333.203,114.641 334.398,114.894 335.000 C 115.148 335.602,115.472 336.375,115.614 336.719 C 115.757 337.063,116.099 337.857,116.374 338.485 C 116.650 339.112,116.875 339.780,116.875 339.969 C 116.875 340.158,117.016 340.313,117.188 340.313 C 117.359 340.313,117.500 340.508,117.500 340.746 C 117.500 341.142,122.436 351.201,122.808 351.563 C 122.896 351.648,123.122 352.000,123.309 352.344 C 124.786 355.053,125.662 356.555,127.591 359.688 C 128.809 361.664,129.887 363.352,129.987 363.438 C 130.088 363.523,130.799 364.578,131.567 365.781 C 132.336 366.984,133.073 368.109,133.206 368.281 C 133.339 368.453,134.236 369.719,135.199 371.094 C 137.147 373.877,140.343 377.188,141.082 377.188 C 141.346 377.188,141.563 377.309,141.563 377.457 C 141.563 378.642,149.816 379.275,152.102 378.266 C 155.369 376.823,157.013 375.512,158.728 372.982 C 160.895 369.784,161.315 361.661,159.399 360.000 C 159.300 359.914,158.945 359.352,158.609 358.750 C 158.274 358.148,157.886 357.516,157.747 357.344 C 153.460 352.058,145.370 338.106,142.434 330.938 C 142.259 330.508,141.990 329.912,141.839 329.614 C 141.687 329.315,141.562 328.893,141.561 328.676 C 141.560 328.459,141.380 327.930,141.161 327.500 C 140.942 327.070,140.501 325.875,140.181 324.844 C 139.862 323.813,139.491 322.688,139.358 322.344 C 139.225 322.000,138.875 320.664,138.581 319.375 C 138.286 318.086,137.968 316.820,137.874 316.563 C 135.958 311.296,135.927 291.548,137.830 288.051 C 137.992 287.753,138.125 287.273,138.125 286.985 C 138.125 286.446,138.943 283.454,139.394 282.344 C 139.534 282.000,139.747 281.367,139.867 280.938 C 139.988 280.508,140.429 279.383,140.848 278.438 C 141.266 277.492,141.826 276.227,142.090 275.625 C 143.312 272.850,146.168 267.466,146.567 267.188 C 146.690 267.102,146.890 266.715,147.010 266.328 C 147.131 265.941,147.361 265.625,147.521 265.625 C 147.681 265.625,147.813 265.481,147.813 265.304 C 147.813 264.884,152.044 259.005,154.779 255.625 C 159.608 249.657,169.101 240.165,176.057 234.347 C 176.553 233.933,177.115 233.453,177.307 233.281 C 178.027 232.637,179.920 231.057,181.239 230.000 C 181.989 229.398,182.755 228.764,182.942 228.589 C 183.129 228.415,183.914 227.786,184.688 227.191 C 185.461 226.596,186.164 226.032,186.250 225.938 C 186.336 225.843,187.039 225.280,187.813 224.688 C 188.586 224.095,189.289 223.535,189.375 223.444 C 189.461 223.352,190.195 222.786,191.006 222.186 C 192.612 220.996,192.841 220.463,191.875 220.156 C 191.531 220.047,191.250 219.827,191.250 219.666 C 191.250 219.506,191.051 219.375,190.807 219.375 C 190.564 219.375,190.318 219.267,190.260 219.135 C 190.203 219.003,188.258 217.718,185.938 216.280 C 183.617 214.842,181.648 213.575,181.563 213.464 C 181.477 213.353,179.789 212.243,177.813 210.998 C 173.000 207.966,173.249 208.126,171.301 206.797 C 169.244 205.393,169.571 205.377,167.643 206.975 " stroke="none" fill="#0593b4" fill-rule="evenodd"></path><path id="path1" d="M246.332 21.162 C 246.807 21.234,247.511 21.232,247.895 21.157 C 248.279 21.083,247.891 21.025,247.031 21.027 C 246.172 21.029,245.857 21.090,246.332 21.162 M256.250 24.844 C 256.833 25.445,257.380 25.938,257.466 25.938 C 257.552 25.938,257.146 25.445,256.563 24.844 C 255.979 24.242,255.432 23.750,255.346 23.750 C 255.260 23.750,255.667 24.242,256.250 24.844 M234.135 32.500 C 234.135 33.102,234.199 33.348,234.278 33.047 C 234.357 32.746,234.357 32.254,234.278 31.953 C 234.199 31.652,234.135 31.898,234.135 32.500 M234.135 35.625 C 234.135 36.227,234.199 36.473,234.278 36.172 C 234.357 35.871,234.357 35.379,234.278 35.078 C 234.199 34.777,234.135 35.023,234.135 35.625 M121.172 40.221 C 121.559 40.295,122.191 40.295,122.578 40.221 C 122.965 40.146,122.648 40.085,121.875 40.085 C 121.102 40.085,120.785 40.146,121.172 40.221 M112.171 44.297 L 111.094 45.469 112.266 44.392 C 112.910 43.800,113.438 43.272,113.438 43.220 C 113.438 42.981,113.173 43.206,112.171 44.297 M227.759 43.282 C 227.638 43.404,217.423 46.988,212.188 48.746 C 210.493 49.315,202.036 52.245,196.406 54.214 C 193.141 55.356,189.484 56.622,188.281 57.026 C 187.078 57.431,182.859 58.881,178.906 60.250 C 174.953 61.618,170.805 63.046,169.688 63.422 C 168.570 63.799,167.375 64.234,167.031 64.389 C 166.688 64.545,165.141 65.087,163.594 65.595 C 162.047 66.103,158.109 67.449,154.844 68.586 C 151.578 69.723,147.008 71.298,144.688 72.086 C 142.367 72.874,140.337 73.639,140.177 73.786 C 139.054 74.812,139.315 98.125,140.450 98.125 C 140.644 98.125,141.642 97.829,142.667 97.467 C 144.711 96.745,156.372 92.704,163.281 90.324 C 165.688 89.495,169.344 88.230,171.406 87.512 C 173.469 86.794,177.125 85.528,179.531 84.699 C 181.938 83.870,185.594 82.605,187.656 81.887 C 193.593 79.821,200.277 77.517,202.656 76.716 C 203.859 76.312,207.516 75.046,210.781 73.903 C 214.047 72.761,217.703 71.493,218.906 71.085 C 220.109 70.677,223.766 69.411,227.031 68.271 C 230.297 67.131,234.902 65.542,237.266 64.741 C 239.629 63.940,241.563 63.196,241.563 63.088 C 241.563 62.339,236.383 54.084,232.174 48.125 C 231.020 46.492,229.845 44.699,229.562 44.141 C 229.104 43.238,228.223 42.818,227.759 43.282 M105.073 72.500 C 105.073 73.102,105.137 73.348,105.215 73.047 C 105.294 72.746,105.294 72.254,105.215 71.953 C 105.137 71.652,105.073 71.898,105.073 72.500 M246.250 78.408 C 245.477 78.703,242.453 79.753,239.531 80.741 C 236.609 81.730,233.938 82.666,233.594 82.821 C 233.250 82.976,232.125 83.382,231.094 83.723 C 230.063 84.063,226.547 85.273,223.281 86.412 C 220.016 87.551,215.938 88.956,214.219 89.534 C 212.500 90.112,208.844 91.377,206.094 92.345 C 203.344 93.313,200.109 94.433,198.906 94.834 C 197.703 95.236,194.047 96.500,190.781 97.645 C 187.516 98.790,183.859 100.059,182.656 100.465 C 181.453 100.871,177.375 102.281,173.594 103.597 C 162.249 107.547,150.674 111.550,147.188 112.729 C 145.383 113.339,143.861 113.875,143.806 113.920 C 142.978 114.600,154.233 132.972,156.238 134.211 C 156.368 134.292,158.499 133.649,160.972 132.782 C 163.445 131.916,166.453 130.876,167.656 130.472 C 169.601 129.819,176.352 127.480,187.188 123.705 C 192.601 121.819,199.686 119.373,201.094 118.905 C 201.781 118.676,205.016 117.554,208.281 116.412 C 211.547 115.271,215.203 114.002,216.406 113.595 C 217.609 113.187,221.688 111.776,225.469 110.461 C 229.250 109.145,233.328 107.740,234.531 107.338 C 235.734 106.936,239.391 105.669,242.656 104.523 C 245.922 103.376,249.684 102.087,251.016 101.658 L 253.438 100.878 253.437 98.642 C 253.437 94.996,252.578 91.138,250.156 83.906 C 248.524 79.035,248.047 77.798,247.814 77.842 C 247.727 77.859,247.023 78.113,246.250 78.408 M263.829 95.156 C 263.832 95.844,263.896 96.088,263.971 95.699 C 264.046 95.311,264.043 94.748,263.965 94.449 C 263.886 94.151,263.825 94.469,263.829 95.156 M292.266 97.031 C 292.270 97.719,292.334 97.963,292.409 97.574 C 292.483 97.186,292.480 96.623,292.402 96.324 C 292.324 96.026,292.263 96.344,292.266 97.031 M264.135 101.250 C 264.135 101.852,264.199 102.098,264.278 101.797 C 264.357 101.496,264.357 101.004,264.278 100.703 C 264.199 100.402,264.135 100.648,264.135 101.250 M263.829 106.406 C 263.832 107.094,263.896 107.338,263.971 106.949 C 264.046 106.561,264.043 105.998,263.965 105.699 C 263.886 105.401,263.825 105.719,263.829 106.406 M292.260 106.875 C 292.260 107.477,292.324 107.723,292.403 107.422 C 292.482 107.121,292.482 106.629,292.403 106.328 C 292.324 106.027,292.260 106.273,292.260 106.875 M245.469 120.327 C 241.672 121.668,211.730 132.016,207.969 133.287 C 206.021 133.945,198.453 136.547,184.688 141.289 C 182.195 142.148,179.172 143.183,177.969 143.589 C 171.044 145.926,165.438 147.912,165.232 148.101 C 164.797 148.498,172.392 155.520,178.594 160.455 C 180.313 161.822,182.480 163.551,183.412 164.296 C 185.139 165.679,185.895 165.807,187.490 164.987 C 187.753 164.851,192.539 163.255,198.125 161.440 C 203.711 159.624,211.317 157.145,215.027 155.930 L 221.774 153.720 227.113 148.345 C 237.127 138.262,241.868 132.079,247.082 122.303 C 248.914 118.869,249.067 119.056,245.469 120.327 M235.762 153.828 L 234.844 154.844 235.859 153.926 C 236.418 153.421,236.875 152.964,236.875 152.910 C 236.875 152.669,236.617 152.881,235.762 153.828 M209.688 234.434 C 207.925 235.079,194.957 239.589,191.875 240.628 C 177.948 245.324,177.620 245.461,175.224 247.606 C 171.609 250.842,165.906 256.874,161.681 261.931 C 157.717 266.675,149.852 279.375,150.877 279.375 C 151.114 279.375,160.321 276.232,167.969 273.541 C 169.688 272.936,172.078 272.114,173.281 271.714 C 175.323 271.035,180.235 269.334,196.875 263.543 C 200.570 262.257,204.578 260.874,205.781 260.470 C 206.984 260.067,209.586 259.172,211.563 258.483 C 224.274 254.051,227.290 253.012,229.453 252.315 C 230.785 251.886,231.875 251.428,231.875 251.297 C 231.875 250.575,221.986 241.658,216.406 237.347 C 214.859 236.152,213.523 235.096,213.438 235.002 C 213.221 234.763,211.605 233.744,211.495 233.777 C 211.446 233.792,210.633 234.088,209.688 234.434 M167.949 241.641 L 167.031 242.656 168.047 241.738 C 168.605 241.234,169.063 240.777,169.063 240.723 C 169.063 240.481,168.805 240.694,167.949 241.641 M240.000 265.443 C 238.883 265.830,237.758 266.229,237.500 266.329 C 237.242 266.430,235.695 266.960,234.063 267.507 C 232.430 268.055,230.813 268.619,230.469 268.760 C 230.125 268.902,228.930 269.326,227.813 269.703 C 225.031 270.640,218.209 272.994,211.094 275.472 C 207.828 276.609,204.172 277.873,202.969 278.281 C 201.766 278.690,199.164 279.586,197.188 280.272 C 195.211 280.959,189.938 282.785,185.469 284.329 C 181.000 285.874,174.250 288.215,170.469 289.533 C 166.688 290.850,162.609 292.260,161.406 292.666 C 159.233 293.400,148.584 297.116,146.641 297.819 L 145.625 298.186 145.627 302.140 C 145.630 306.610,146.405 312.283,147.662 317.031 C 148.117 318.750,148.564 320.473,148.656 320.859 C 148.874 321.777,147.491 322.153,160.469 317.646 C 163.734 316.512,167.391 315.253,168.594 314.850 C 169.797 314.446,173.453 313.178,176.719 312.033 C 179.984 310.888,183.219 309.767,183.906 309.542 C 184.594 309.317,188.250 308.051,192.031 306.728 C 195.813 305.406,199.891 303.992,201.094 303.587 C 202.297 303.181,205.953 301.919,209.219 300.781 C 222.959 295.994,237.717 290.893,241.406 289.655 C 242.953 289.136,244.500 288.594,244.844 288.451 C 245.188 288.307,246.805 287.742,248.438 287.195 C 253.448 285.517,253.184 285.669,252.945 284.581 C 251.922 279.921,244.107 264.919,242.636 264.791 C 242.304 264.762,241.117 265.055,240.000 265.443 M107.589 294.531 C 107.592 295.391,107.652 295.705,107.724 295.230 C 107.796 294.755,107.794 294.052,107.720 293.668 C 107.646 293.283,107.587 293.672,107.589 294.531 M253.750 302.168 C 252.461 302.634,251.195 303.102,250.938 303.206 C 250.680 303.311,248.992 303.891,247.188 304.495 C 245.383 305.100,241.234 306.526,237.969 307.665 C 234.703 308.804,231.047 310.068,229.844 310.473 C 228.641 310.878,224.984 312.145,221.719 313.288 C 218.453 314.432,214.797 315.698,213.594 316.103 C 212.391 316.508,208.313 317.917,204.531 319.234 C 200.750 320.551,196.672 321.955,195.469 322.354 C 194.266 322.752,191.031 323.872,188.281 324.842 C 185.531 325.812,181.875 327.084,180.156 327.669 C 178.438 328.253,174.359 329.663,171.094 330.801 C 167.828 331.940,164.313 333.153,163.281 333.496 C 161.371 334.133,157.707 335.423,156.194 335.992 L 155.357 336.307 156.162 337.763 C 157.787 340.699,162.284 347.744,164.572 350.938 C 165.865 352.742,167.191 354.735,167.518 355.367 L 168.113 356.515 171.479 355.332 C 173.329 354.682,175.055 354.066,175.313 353.964 C 175.570 353.862,178.242 352.942,181.250 351.920 C 184.258 350.899,188.406 349.475,190.469 348.757 C 192.531 348.039,194.992 347.194,195.938 346.878 C 196.883 346.563,200.328 345.369,203.594 344.226 C 206.859 343.082,210.516 341.814,211.719 341.408 C 212.922 341.002,216.578 339.732,219.844 338.587 C 223.109 337.441,226.766 336.175,227.969 335.774 C 229.172 335.373,232.828 334.113,236.094 332.975 C 241.685 331.025,248.880 328.540,254.528 326.609 C 257.619 325.552,257.458 326.174,257.482 315.216 C 257.500 307.031,257.063 301.220,256.434 301.285 C 256.247 301.304,255.039 301.702,253.750 302.168 M107.589 304.219 C 107.592 305.078,107.652 305.393,107.724 304.918 C 107.796 304.443,107.794 303.739,107.720 303.355 C 107.646 302.971,107.587 303.359,107.589 304.219 M293.238 308.125 C 293.238 309.758,293.290 310.426,293.355 309.609 C 293.419 308.793,293.419 307.457,293.355 306.641 C 293.290 305.824,293.238 306.492,293.238 308.125 M293.239 318.281 C 293.240 320.000,293.292 320.663,293.356 319.755 C 293.419 318.847,293.418 317.441,293.354 316.630 C 293.290 315.820,293.238 316.563,293.239 318.281 M160.704 366.094 C 160.707 366.781,160.771 367.026,160.846 366.637 C 160.921 366.248,160.918 365.686,160.840 365.387 C 160.761 365.088,160.700 365.406,160.704 366.094 M146.016 378.965 C 146.316 379.044,146.809 379.044,147.109 378.965 C 147.410 378.887,147.164 378.823,146.563 378.823 C 145.961 378.823,145.715 378.887,146.016 378.965 M148.516 378.965 C 148.816 379.044,149.309 379.044,149.609 378.965 C 149.910 378.887,149.664 378.823,149.063 378.823 C 148.461 378.823,148.215 378.887,148.516 378.965 " stroke="none" fill="#94959c" fill-rule="evenodd"></path><path id="path2" d="M229.849 44.688 C 230.332 45.583,233.481 50.000,233.637 50.000 C 233.723 50.000,232.987 48.840,232.002 47.422 C 230.236 44.879,229.334 43.734,229.849 44.688 M239.844 60.000 C 240.110 60.516,240.399 60.938,240.485 60.938 C 240.571 60.938,240.423 60.516,240.156 60.000 C 239.890 59.484,239.601 59.063,239.515 59.063 C 239.429 59.063,239.577 59.484,239.844 60.000 M164.219 65.167 C 163.437 65.544,163.411 65.587,164.063 65.428 C 164.948 65.211,165.943 64.704,165.469 64.711 C 165.297 64.714,164.734 64.919,164.219 65.167 M218.906 71.105 C 218.125 71.481,218.099 71.525,218.750 71.365 C 219.635 71.149,220.631 70.642,220.156 70.649 C 219.984 70.651,219.422 70.856,218.906 71.105 M139.464 76.719 C 139.467 77.578,139.527 77.893,139.599 77.418 C 139.671 76.943,139.669 76.239,139.595 75.855 C 139.521 75.471,139.462 75.859,139.464 76.719 M104.454 77.969 C 104.457 78.656,104.521 78.901,104.596 78.512 C 104.671 78.123,104.668 77.561,104.590 77.262 C 104.511 76.963,104.450 77.281,104.454 77.969 M193.594 79.855 C 192.812 80.231,192.786 80.275,193.438 80.115 C 194.323 79.899,195.318 79.392,194.844 79.399 C 194.672 79.401,194.109 79.606,193.594 79.855 M131.016 80.781 C 131.020 81.469,131.084 81.713,131.159 81.324 C 131.233 80.936,131.230 80.373,131.152 80.074 C 131.074 79.776,131.013 80.094,131.016 80.781 M230.781 83.605 C 230.000 83.981,229.974 84.025,230.625 83.865 C 231.510 83.649,232.506 83.142,232.031 83.149 C 231.859 83.151,231.297 83.356,230.781 83.605 M139.148 84.688 C 139.148 85.461,139.209 85.777,139.283 85.391 C 139.358 85.004,139.358 84.371,139.283 83.984 C 139.209 83.598,139.148 83.914,139.148 84.688 M214.531 89.230 C 213.750 89.606,213.724 89.650,214.375 89.490 C 215.260 89.274,216.256 88.767,215.781 88.774 C 215.609 88.776,215.047 88.981,214.531 89.230 M139.460 92.500 C 139.460 93.273,139.521 93.590,139.596 93.203 C 139.670 92.816,139.670 92.184,139.596 91.797 C 139.521 91.410,139.460 91.727,139.460 92.500 M131.023 93.750 C 131.023 94.523,131.084 94.840,131.158 94.453 C 131.233 94.066,131.233 93.434,131.158 93.047 C 131.084 92.660,131.023 92.977,131.023 93.750 M139.760 95.625 C 139.760 96.227,139.824 96.473,139.903 96.172 C 139.982 95.871,139.982 95.379,139.903 95.078 C 139.824 94.777,139.760 95.023,139.760 95.625 M263.829 97.344 C 263.832 98.031,263.896 98.276,263.971 97.887 C 264.046 97.498,264.043 96.936,263.965 96.637 C 263.886 96.338,263.825 96.656,263.829 97.344 M253.523 99.375 C 253.523 100.148,253.584 100.465,253.658 100.078 C 253.733 99.691,253.733 99.059,253.658 98.672 C 253.584 98.285,253.523 98.602,253.523 99.375 M292.579 100.156 C 292.582 100.844,292.646 101.088,292.721 100.699 C 292.796 100.311,292.793 99.748,292.715 99.449 C 292.636 99.151,292.575 99.469,292.579 100.156 M248.906 102.355 C 248.125 102.731,248.099 102.775,248.750 102.615 C 249.635 102.399,250.631 101.892,250.156 101.899 C 249.984 101.901,249.422 102.106,248.906 102.355 M292.585 104.063 C 292.585 104.836,292.646 105.152,292.721 104.766 C 292.795 104.379,292.795 103.746,292.721 103.359 C 292.646 102.973,292.585 103.289,292.585 104.063 M263.823 104.375 C 263.823 104.977,263.887 105.223,263.965 104.922 C 264.044 104.621,264.044 104.129,263.965 103.828 C 263.887 103.527,263.823 103.773,263.823 104.375 M165.781 106.105 C 165.000 106.481,164.974 106.525,165.625 106.365 C 166.510 106.149,167.506 105.642,167.031 105.649 C 166.859 105.651,166.297 105.856,165.781 106.105 M232.656 107.980 C 231.875 108.356,231.849 108.400,232.500 108.240 C 233.385 108.024,234.381 107.517,233.906 107.524 C 233.734 107.526,233.172 107.731,232.656 107.980 M149.531 111.730 C 148.750 112.106,148.724 112.150,149.375 111.990 C 150.260 111.774,151.256 111.267,150.781 111.274 C 150.609 111.276,150.047 111.481,149.531 111.730 M216.406 113.605 C 215.625 113.981,215.599 114.025,216.250 113.865 C 217.135 113.649,218.131 113.142,217.656 113.149 C 217.484 113.151,216.922 113.356,216.406 113.605 M200.156 119.230 C 199.375 119.606,199.349 119.650,200.000 119.490 C 200.885 119.274,201.881 118.767,201.406 118.774 C 201.234 118.776,200.672 118.981,200.156 119.230 M183.906 124.855 C 183.125 125.231,183.099 125.275,183.750 125.115 C 184.635 124.899,185.631 124.392,185.156 124.399 C 184.984 124.401,184.422 124.606,183.906 124.855 M245.744 124.766 C 244.668 126.591,244.598 126.746,245.146 126.094 C 245.781 125.338,246.328 124.375,246.123 124.375 C 246.041 124.375,245.871 124.551,245.744 124.766 M216.406 130.145 C 215.199 130.698,215.761 130.706,217.188 130.156 C 217.789 129.925,218.070 129.731,217.813 129.725 C 217.555 129.720,216.922 129.909,216.406 130.145 M207.344 133.292 C 206.562 133.669,206.536 133.712,207.188 133.553 C 208.073 133.336,209.068 132.829,208.594 132.836 C 208.422 132.839,207.859 133.044,207.344 133.292 M233.733 141.484 L 232.656 142.656 233.828 141.579 C 234.919 140.577,235.144 140.313,234.905 140.313 C 234.853 140.313,234.325 140.840,233.733 141.484 M230.149 145.391 L 227.656 147.969 230.234 145.476 C 231.652 144.105,232.813 142.945,232.813 142.898 C 232.813 142.670,232.464 142.996,230.149 145.391 M157.031 150.625 C 157.878 151.484,158.641 152.188,158.727 152.188 C 158.812 152.188,158.190 151.484,157.344 150.625 C 156.497 149.766,155.734 149.063,155.648 149.063 C 155.563 149.063,156.185 149.766,157.031 150.625 M224.366 151.172 L 222.344 153.281 224.453 151.259 C 225.613 150.147,226.563 149.198,226.563 149.150 C 226.563 148.920,226.244 149.213,224.366 151.172 M171.094 154.375 C 171.765 155.063,172.385 155.625,172.471 155.625 C 172.557 155.625,172.078 155.063,171.406 154.375 C 170.735 153.688,170.115 153.125,170.029 153.125 C 169.943 153.125,170.422 153.688,171.094 154.375 M264.046 163.047 L 262.969 164.219 264.141 163.142 C 264.785 162.550,265.313 162.022,265.313 161.970 C 265.313 161.731,265.048 161.956,264.046 163.047 M192.656 163.292 C 191.875 163.669,191.849 163.712,192.500 163.553 C 193.385 163.336,194.381 162.829,193.906 162.836 C 193.734 162.839,193.172 163.044,192.656 163.292 M188.281 164.598 C 187.938 164.681,187.525 164.873,187.365 165.025 C 187.205 165.177,187.540 165.168,188.110 165.004 C 189.721 164.542,189.857 164.219,188.281 164.598 M185.007 165.755 C 185.180 165.929,185.573 165.916,186.005 165.721 C 186.670 165.422,186.650 165.402,185.720 165.434 C 185.115 165.455,184.834 165.582,185.007 165.755 M136.250 168.281 C 137.703 169.742,138.963 170.938,139.049 170.938 C 139.135 170.938,138.016 169.742,136.563 168.281 C 135.109 166.820,133.850 165.625,133.764 165.625 C 133.678 165.625,134.797 166.820,136.250 168.281 M256.074 171.016 L 255.156 172.031 256.172 171.113 C 256.730 170.609,257.188 170.152,257.188 170.098 C 257.188 169.856,256.930 170.069,256.074 171.016 M207.031 235.167 C 206.250 235.544,206.224 235.587,206.875 235.428 C 207.760 235.211,208.756 234.704,208.281 234.711 C 208.109 234.714,207.547 234.919,207.031 235.167 M235.299 241.328 C 236.066 242.145,236.734 242.813,236.784 242.813 C 237.018 242.813,236.770 242.532,235.391 241.237 L 233.906 239.844 235.299 241.328 M238.424 244.453 C 239.191 245.270,239.859 245.938,239.909 245.938 C 240.143 245.938,239.895 245.657,238.516 244.362 L 237.031 242.969 238.424 244.453 M224.063 243.535 C 224.063 243.589,224.520 244.046,225.078 244.551 L 226.094 245.469 225.176 244.453 C 224.320 243.506,224.063 243.294,224.063 243.535 M163.896 245.703 L 162.031 247.656 163.984 245.791 C 165.059 244.765,165.938 243.886,165.938 243.838 C 165.938 243.607,165.629 243.889,163.896 245.703 M175.921 246.797 L 174.844 247.969 176.016 246.892 C 177.106 245.889,177.331 245.625,177.093 245.625 C 177.040 245.625,176.513 246.152,175.921 246.797 M229.531 248.682 C 231.595 250.818,231.950 251.326,231.563 251.596 C 231.182 251.861,231.178 251.900,231.543 251.801 C 232.452 251.555,232.136 251.029,229.611 248.588 L 227.031 246.094 229.531 248.682 M170.619 251.751 C 168.818 253.574,167.625 254.880,167.969 254.653 C 168.640 254.210,174.278 248.438,174.039 248.438 C 173.960 248.438,172.421 249.929,170.619 251.751 M165.921 256.797 L 164.844 257.969 166.016 256.892 C 167.106 255.889,167.331 255.625,167.093 255.625 C 167.040 255.625,166.513 256.152,165.921 256.797 M203.906 261.082 C 202.699 261.635,203.261 261.643,204.688 261.094 C 205.289 260.862,205.570 260.668,205.313 260.663 C 205.055 260.658,204.422 260.846,203.906 261.082 M241.094 264.863 C 240.578 265.115,240.415 265.249,240.732 265.160 C 242.483 264.666,242.861 264.650,243.363 265.043 C 243.855 265.428,243.865 265.417,243.477 264.922 C 242.962 264.265,242.345 264.249,241.094 264.863 M171.406 272.355 C 170.625 272.731,170.599 272.775,171.250 272.615 C 172.135 272.399,173.131 271.892,172.656 271.899 C 172.484 271.901,171.922 272.106,171.406 272.355 M252.987 284.648 C 253.118 285.123,253.039 285.487,252.768 285.659 C 252.442 285.866,252.436 285.929,252.744 285.933 C 253.327 285.940,253.545 285.127,253.136 284.472 C 252.828 283.979,252.809 284.002,252.987 284.648 M249.844 286.730 C 249.062 287.106,249.036 287.150,249.688 286.990 C 250.573 286.774,251.568 286.267,251.094 286.274 C 250.922 286.276,250.359 286.481,249.844 286.730 M107.573 292.188 C 107.573 292.789,107.637 293.035,107.715 292.734 C 107.794 292.434,107.794 291.941,107.715 291.641 C 107.637 291.340,107.573 291.586,107.573 292.188 M233.594 292.355 C 232.812 292.731,232.786 292.775,233.438 292.615 C 234.323 292.399,235.318 291.892,234.844 291.899 C 234.672 291.901,234.109 292.106,233.594 292.355 M107.273 297.188 C 107.273 297.961,107.334 298.277,107.408 297.891 C 107.483 297.504,107.483 296.871,107.408 296.484 C 107.334 296.098,107.273 296.414,107.273 297.188 M146.406 297.667 C 145.625 298.044,145.599 298.087,146.250 297.928 C 147.135 297.711,148.131 297.204,147.656 297.211 C 147.484 297.214,146.922 297.419,146.406 297.667 M136.329 299.531 C 136.332 300.219,136.396 300.463,136.471 300.074 C 136.546 299.686,136.543 299.123,136.465 298.824 C 136.386 298.526,136.325 298.844,136.329 299.531 M107.281 301.563 C 107.281 302.508,107.340 302.895,107.411 302.422 C 107.483 301.949,107.483 301.176,107.411 300.703 C 107.340 300.230,107.281 300.617,107.281 301.563 M208.281 301.105 C 207.500 301.481,207.474 301.525,208.125 301.365 C 209.010 301.149,210.006 300.642,209.531 300.649 C 209.359 300.651,208.797 300.856,208.281 301.105 M145.398 302.188 C 145.398 302.961,145.459 303.277,145.533 302.891 C 145.608 302.504,145.608 301.871,145.533 301.484 C 145.459 301.098,145.398 301.414,145.398 302.188 M256.459 301.151 C 256.660 301.294,256.889 301.903,256.967 302.503 C 257.105 303.548,257.109 303.542,257.071 302.368 C 257.045 301.568,256.869 301.098,256.563 301.016 C 256.243 300.930,256.210 300.973,256.459 301.151 M266.329 303.906 C 266.332 304.594,266.396 304.838,266.471 304.449 C 266.546 304.061,266.543 303.498,266.465 303.199 C 266.386 302.901,266.325 303.219,266.329 303.906 M257.260 305.000 C 257.260 305.602,257.324 305.848,257.403 305.547 C 257.482 305.246,257.482 304.754,257.403 304.453 C 257.324 304.152,257.260 304.398,257.260 305.000 M107.573 306.563 C 107.573 307.164,107.637 307.410,107.715 307.109 C 107.794 306.809,107.794 306.316,107.715 306.016 C 107.637 305.715,107.573 305.961,107.573 306.563 M257.631 314.844 C 257.631 318.281,257.677 319.730,257.733 318.063 C 257.789 316.397,257.789 313.584,257.733 311.813 C 257.677 310.043,257.632 311.406,257.631 314.844 M147.544 317.500 C 147.544 317.758,147.665 318.250,147.813 318.594 C 147.982 318.988,148.081 319.045,148.081 318.750 C 148.081 318.492,147.960 318.000,147.813 317.656 C 147.643 317.262,147.544 317.205,147.544 317.500 M159.531 317.980 C 158.750 318.356,158.724 318.400,159.375 318.240 C 160.260 318.024,161.256 317.517,160.781 317.524 C 160.609 317.526,160.047 317.731,159.531 317.980 M293.204 322.344 C 293.207 323.031,293.271 323.276,293.346 322.887 C 293.421 322.498,293.418 321.936,293.340 321.637 C 293.261 321.338,293.200 321.656,293.204 322.344 M257.234 324.619 C 257.200 325.366,256.996 325.722,256.484 325.928 C 256.009 326.119,255.946 326.217,256.290 326.230 C 257.052 326.260,257.562 325.461,257.413 324.472 C 257.288 323.639,257.279 323.647,257.234 324.619 M266.339 326.094 C 266.342 326.953,266.402 327.268,266.474 326.793 C 266.546 326.318,266.544 325.614,266.470 325.230 C 266.396 324.846,266.337 325.234,266.339 326.094 M180.469 327.355 C 179.687 327.731,179.661 327.775,180.313 327.615 C 181.198 327.399,182.193 326.892,181.719 326.899 C 181.547 326.901,180.984 327.106,180.469 327.355 M164.219 332.980 C 163.437 333.356,163.411 333.400,164.063 333.240 C 164.948 333.024,165.943 332.517,165.469 332.524 C 165.297 332.526,164.734 332.731,164.219 332.980 M226.094 336.417 C 225.312 336.794,225.286 336.837,225.938 336.678 C 226.823 336.461,227.818 335.954,227.344 335.961 C 227.172 335.964,226.609 336.169,226.094 336.417 " stroke="none" fill="#bcbcbe" fill-rule="evenodd"></path><path id="path3" d="M246.332 20.849 C 246.807 20.921,247.511 20.919,247.895 20.845 C 248.279 20.771,247.891 20.712,247.031 20.714 C 246.172 20.717,245.857 20.777,246.332 20.849 M250.156 21.250 C 250.500 21.398,250.992 21.519,251.250 21.519 C 251.545 21.519,251.488 21.419,251.094 21.250 C 250.750 21.102,250.258 20.981,250.000 20.981 C 249.705 20.981,249.762 21.081,250.156 21.250 M240.625 22.367 C 239.117 23.222,236.417 25.694,235.869 26.719 C 235.686 27.063,236.365 26.463,237.377 25.387 C 238.390 24.311,239.992 23.012,240.938 22.502 C 241.883 21.991,242.516 21.573,242.344 21.572 C 242.172 21.571,241.398 21.929,240.625 22.367 M252.923 22.165 C 253.585 22.509,254.324 22.953,254.564 23.152 C 254.804 23.351,255.000 23.436,255.000 23.341 C 255.000 23.040,253.314 21.966,252.500 21.749 C 252.034 21.624,252.205 21.793,252.923 22.165 M256.549 24.766 C 257.316 25.582,257.984 26.250,258.034 26.250 C 258.268 26.250,258.020 25.969,256.641 24.674 L 255.156 23.281 256.549 24.766 M234.410 29.722 C 234.217 30.274,234.114 30.781,234.181 30.848 C 234.248 30.915,234.460 30.518,234.653 29.965 C 234.845 29.413,234.948 28.906,234.881 28.840 C 234.814 28.773,234.602 29.170,234.410 29.722 M233.853 34.219 C 233.854 35.422,233.910 35.876,233.978 35.227 C 234.046 34.579,234.045 33.595,233.976 33.040 C 233.907 32.485,233.851 33.016,233.853 34.219 M234.197 37.969 C 234.319 38.484,234.554 39.044,234.718 39.212 C 234.882 39.380,234.852 39.028,234.650 38.430 C 234.176 37.031,233.910 36.759,234.197 37.969 M120.551 39.909 C 120.939 39.983,121.502 39.980,121.801 39.902 C 122.099 39.824,121.781 39.763,121.094 39.766 C 120.406 39.770,120.162 39.834,120.551 39.909 M117.188 40.639 C 116.845 40.871,116.972 40.900,117.656 40.747 C 118.805 40.490,119.055 40.311,118.255 40.317 C 117.926 40.320,117.445 40.465,117.188 40.639 M112.188 43.906 C 111.428 44.680,110.878 45.313,110.964 45.313 C 111.050 45.313,111.741 44.680,112.500 43.906 C 113.259 43.133,113.810 42.500,113.724 42.500 C 113.638 42.500,112.947 43.133,112.188 43.906 M227.969 42.809 C 227.462 43.024,227.530 43.064,228.329 43.021 C 228.871 42.992,229.249 42.863,229.170 42.734 C 228.995 42.450,228.783 42.464,227.969 42.809 M131.875 44.688 C 132.420 45.375,132.935 45.938,133.021 45.938 C 133.107 45.938,132.732 45.375,132.188 44.688 C 131.643 44.000,131.127 43.438,131.041 43.438 C 130.955 43.438,131.330 44.000,131.875 44.688 M272.332 45.234 C 272.814 45.965,273.268 46.563,273.340 46.563 C 273.566 46.563,272.369 44.661,271.900 44.273 C 271.656 44.071,271.850 44.504,272.332 45.234 M239.491 46.028 C 240.328 47.010,241.080 47.813,241.161 47.813 C 241.371 47.813,238.768 44.735,238.331 44.467 C 238.132 44.344,238.654 45.047,239.491 46.028 M274.371 48.359 C 274.918 49.262,275.436 50.000,275.521 50.000 C 275.732 50.000,274.389 47.771,273.827 47.188 C 273.578 46.930,273.823 47.457,274.371 48.359 M109.366 47.830 C 109.177 48.183,109.077 48.636,109.144 48.837 C 109.211 49.038,109.423 48.749,109.616 48.195 C 110.013 47.057,109.882 46.865,109.366 47.830 M134.115 48.453 C 134.298 48.978,134.505 49.349,134.576 49.278 C 134.731 49.123,134.141 47.500,133.930 47.500 C 133.849 47.500,133.932 47.929,134.115 48.453 M241.623 48.681 C 243.432 51.143,245.729 54.063,245.857 54.063 C 245.944 54.063,245.881 53.887,245.717 53.672 C 242.757 49.773,241.460 48.125,241.349 48.125 C 241.275 48.125,241.398 48.375,241.623 48.681 M108.632 49.856 C 108.525 50.135,108.452 50.669,108.469 51.041 C 108.490 51.470,108.596 51.317,108.758 50.627 C 109.031 49.466,108.957 49.010,108.632 49.856 M134.844 53.438 C 134.844 55.315,134.939 56.611,135.056 56.316 C 135.173 56.022,135.269 54.727,135.269 53.438 C 135.269 52.148,135.173 50.853,135.056 50.559 C 134.939 50.264,134.844 51.560,134.844 53.438 M275.897 50.781 C 276.066 51.125,276.433 51.688,276.713 52.031 L 277.222 52.656 276.915 52.031 C 276.746 51.688,276.379 51.125,276.099 50.781 L 275.591 50.156 275.897 50.781 M107.674 54.236 C 107.556 54.863,107.522 55.439,107.599 55.515 C 107.675 55.592,107.834 55.141,107.951 54.514 C 108.069 53.887,108.103 53.311,108.026 53.235 C 107.950 53.158,107.791 53.609,107.674 54.236 M247.520 56.719 C 248.411 58.008,249.202 59.063,249.276 59.063 C 249.450 59.063,249.227 58.706,247.566 56.328 C 246.816 55.254,246.134 54.375,246.051 54.375 C 245.968 54.375,246.629 55.430,247.520 56.719 M107.070 57.043 C 106.963 57.323,106.890 57.997,106.909 58.541 C 106.939 59.404,106.979 59.353,107.215 58.145 C 107.494 56.723,107.417 56.138,107.070 57.043 M134.101 59.219 C 134.075 59.563,133.982 60.195,133.893 60.625 L 133.732 61.406 134.067 60.640 C 134.251 60.218,134.345 59.585,134.275 59.233 C 134.151 58.610,134.146 58.610,134.101 59.219 M106.094 62.813 C 105.974 63.523,105.941 64.170,106.021 64.250 C 106.101 64.330,106.260 63.810,106.375 63.094 C 106.490 62.378,106.522 61.731,106.448 61.656 C 106.373 61.581,106.214 62.102,106.094 62.813 M251.210 62.344 C 251.379 62.688,251.746 63.250,252.026 63.594 L 252.534 64.219 252.228 63.594 C 252.059 63.250,251.692 62.688,251.412 62.344 L 250.903 61.719 251.210 62.344 M133.299 63.299 C 133.181 63.926,133.147 64.501,133.224 64.578 C 133.300 64.654,133.459 64.204,133.576 63.576 C 133.694 62.949,133.728 62.374,133.651 62.297 C 133.575 62.221,133.416 62.671,133.299 63.299 M284.397 66.406 C 284.397 66.578,284.598 67.070,284.844 67.500 C 285.089 67.930,285.290 68.141,285.290 67.969 C 285.290 67.797,285.089 67.305,284.844 66.875 C 284.598 66.445,284.397 66.234,284.397 66.406 M105.208 68.412 C 105.093 69.514,105.058 70.474,105.130 70.547 C 105.323 70.740,105.715 67.301,105.555 66.820 C 105.479 66.594,105.323 67.310,105.208 68.412 M132.553 67.539 C 132.524 67.990,132.426 68.834,132.335 69.414 C 132.185 70.380,132.199 70.404,132.507 69.698 C 132.691 69.274,132.789 68.431,132.724 67.823 C 132.638 67.025,132.590 66.946,132.553 67.539 M131.785 73.438 C 131.665 74.383,131.585 75.719,131.607 76.406 C 131.630 77.141,131.757 76.625,131.916 75.156 C 132.226 72.300,132.113 70.831,131.785 73.438 M104.525 74.171 C 104.405 75.288,104.369 76.389,104.445 76.617 C 104.521 76.845,104.680 75.991,104.798 74.720 C 104.916 73.449,104.952 72.348,104.878 72.274 C 104.803 72.199,104.645 73.053,104.525 74.171 M287.054 72.813 C 287.169 73.242,287.393 73.805,287.553 74.063 C 287.754 74.388,287.779 74.293,287.633 73.750 C 287.518 73.320,287.294 72.758,287.135 72.500 C 286.933 72.174,286.909 72.270,287.054 72.813 M139.702 73.577 C 139.496 73.825,139.389 74.352,139.465 74.748 C 139.589 75.398,139.607 75.386,139.645 74.625 C 139.668 74.161,139.934 73.638,140.234 73.463 C 140.535 73.287,140.623 73.140,140.429 73.135 C 140.235 73.129,139.908 73.328,139.702 73.577 M258.295 76.016 C 258.412 76.402,258.636 76.856,258.794 77.024 C 258.951 77.192,258.921 76.876,258.728 76.321 C 258.332 75.186,257.967 74.928,258.295 76.016 M288.632 77.344 C 288.743 77.859,288.958 78.492,289.109 78.750 C 289.285 79.050,289.311 78.881,289.181 78.281 C 289.069 77.766,288.855 77.133,288.704 76.875 C 288.528 76.575,288.502 76.744,288.632 77.344 M139.177 80.469 C 139.177 82.188,139.230 82.851,139.293 81.943 C 139.357 81.035,139.356 79.628,139.292 78.818 C 139.228 78.007,139.176 78.750,139.177 80.469 M259.072 77.813 C 259.072 78.070,259.208 78.492,259.375 78.750 C 259.644 79.167,259.678 79.167,259.678 78.750 C 259.678 78.492,259.542 78.070,259.375 77.813 C 259.106 77.396,259.072 77.396,259.072 77.813 M131.329 79.219 C 131.332 79.906,131.396 80.151,131.471 79.762 C 131.546 79.373,131.543 78.811,131.465 78.512 C 131.386 78.213,131.325 78.531,131.329 79.219 M104.141 79.531 C 104.145 80.219,104.209 80.463,104.284 80.074 C 104.358 79.686,104.355 79.123,104.277 78.824 C 104.199 78.526,104.138 78.844,104.141 79.531 M289.402 80.000 C 289.411 80.258,289.540 80.750,289.688 81.094 L 289.956 81.719 289.973 81.094 C 289.983 80.750,289.854 80.258,289.688 80.000 C 289.418 79.583,289.386 79.583,289.402 80.000 M103.888 90.156 C 103.888 95.141,103.931 97.136,103.984 94.590 C 104.036 92.045,104.036 87.966,103.984 85.528 C 103.931 83.089,103.888 85.172,103.888 90.156 M131.066 87.188 C 131.066 90.195,131.113 91.426,131.170 89.922 C 131.227 88.418,131.227 85.957,131.170 84.453 C 131.113 82.949,131.066 84.180,131.066 87.188 M260.669 82.188 C 260.669 82.445,260.790 82.938,260.938 83.281 C 261.107 83.675,261.206 83.733,261.206 83.438 C 261.206 83.180,261.085 82.688,260.938 82.344 C 260.768 81.950,260.669 81.892,260.669 82.188 M290.209 82.813 C 290.506 84.454,290.966 85.408,290.736 83.906 C 290.631 83.219,290.425 82.445,290.278 82.188 C 290.115 81.903,290.088 82.148,290.209 82.813 M261.455 85.000 C 261.561 85.602,261.767 86.305,261.913 86.563 C 262.072 86.845,262.100 86.596,261.983 85.938 C 261.876 85.336,261.670 84.633,261.525 84.375 C 261.366 84.093,261.338 84.342,261.455 85.000 M139.175 88.750 C 139.175 90.383,139.228 91.051,139.292 90.234 C 139.357 89.418,139.357 88.082,139.292 87.266 C 139.228 86.449,139.175 87.117,139.175 88.750 M291.147 87.031 C 291.384 88.576,291.564 88.839,291.558 87.630 C 291.555 87.129,291.418 86.508,291.254 86.250 C 291.051 85.931,291.016 86.180,291.147 87.031 M262.393 88.594 C 262.497 89.281,262.635 89.902,262.698 89.974 C 262.934 90.242,262.757 88.569,262.485 87.969 C 262.288 87.533,262.260 87.723,262.393 88.594 M168.906 88.605 C 168.125 88.981,168.099 89.025,168.750 88.865 C 169.635 88.649,170.631 88.142,170.156 88.149 C 169.984 88.151,169.422 88.356,168.906 88.605 M291.940 90.938 C 291.930 91.539,292.034 92.664,292.172 93.438 C 292.510 95.337,292.536 93.553,292.202 91.406 C 292.003 90.129,291.955 90.043,291.940 90.938 M263.162 92.839 C 263.182 93.426,263.313 94.328,263.453 94.844 C 263.621 95.460,263.648 95.139,263.534 93.906 C 263.341 91.840,263.104 91.157,263.162 92.839 M152.656 94.230 C 151.875 94.606,151.849 94.650,152.500 94.490 C 153.385 94.274,154.381 93.767,153.906 93.774 C 153.734 93.776,153.172 93.981,152.656 94.230 M131.329 95.156 C 131.332 95.844,131.396 96.088,131.471 95.699 C 131.546 95.311,131.543 94.748,131.465 94.449 C 131.386 94.151,131.325 94.469,131.329 95.156 M253.527 96.719 C 253.529 97.578,253.590 97.893,253.662 97.418 C 253.734 96.943,253.732 96.239,253.657 95.855 C 253.583 95.471,253.525 95.859,253.527 96.719 M292.655 102.031 C 292.656 105.297,292.751 107.336,292.867 106.563 C 293.140 104.747,293.140 99.311,292.867 97.500 C 292.750 96.727,292.655 98.766,292.655 102.031 M139.800 97.476 C 139.827 98.134,140.024 98.594,140.313 98.672 C 140.629 98.757,140.664 98.713,140.419 98.538 C 140.219 98.396,139.989 97.858,139.906 97.343 C 139.768 96.485,139.759 96.496,139.800 97.476 M143.594 97.355 C 142.812 97.731,142.786 97.775,143.438 97.615 C 144.323 97.399,145.318 96.892,144.844 96.899 C 144.672 96.901,144.109 97.106,143.594 97.355 M131.599 98.464 C 131.620 99.223,131.748 100.266,131.883 100.781 C 132.033 101.350,132.063 100.858,131.960 99.531 C 131.766 97.047,131.544 96.388,131.599 98.464 M263.859 100.938 C 263.859 102.398,263.913 102.996,263.979 102.266 C 264.045 101.535,264.045 100.340,263.979 99.609 C 263.913 98.879,263.859 99.477,263.859 100.938 M104.135 100.313 C 104.135 100.914,104.199 101.160,104.278 100.859 C 104.357 100.559,104.357 100.066,104.278 99.766 C 104.199 99.465,104.135 99.711,104.135 100.313 M104.412 103.932 C 104.432 104.777,104.558 105.891,104.692 106.406 C 104.835 106.955,104.866 106.373,104.768 105.000 C 104.576 102.312,104.357 101.655,104.412 103.932 M132.401 104.063 C 132.503 104.836,132.638 105.527,132.700 105.599 C 132.935 105.870,132.756 103.878,132.492 103.281 C 132.307 102.864,132.277 103.124,132.401 104.063 M171.406 103.917 C 170.625 104.294,170.599 104.337,171.250 104.178 C 172.135 103.961,173.131 103.454,172.656 103.461 C 172.484 103.464,171.922 103.669,171.406 103.917 M263.346 107.148 C 263.224 107.729,263.140 108.572,263.159 109.023 C 263.182 109.564,263.289 109.365,263.474 108.438 C 263.629 107.664,263.712 106.820,263.660 106.563 C 263.609 106.305,263.467 106.568,263.346 107.148 M133.178 107.969 C 133.173 108.313,133.290 108.875,133.438 109.219 C 133.780 110.015,133.780 109.193,133.438 108.125 C 133.236 107.497,133.185 107.466,133.178 107.969 M292.042 111.417 C 291.920 112.555,291.886 113.552,291.966 113.632 C 292.046 113.713,292.211 112.847,292.333 111.708 C 292.455 110.570,292.489 109.573,292.409 109.493 C 292.329 109.412,292.164 110.278,292.042 111.417 M105.334 110.807 C 105.347 111.309,105.481 112.000,105.633 112.344 C 105.818 112.761,105.848 112.501,105.724 111.563 C 105.505 109.906,105.303 109.515,105.334 110.807 M133.941 111.094 C 134.198 112.243,134.377 112.492,134.370 111.693 C 134.368 111.363,134.223 110.883,134.048 110.625 C 133.817 110.283,133.788 110.409,133.941 111.094 M262.519 111.921 C 262.330 112.805,262.235 113.589,262.309 113.663 C 262.468 113.822,262.684 113.094,262.956 111.484 C 263.251 109.735,262.916 110.070,262.519 111.921 M105.959 114.089 C 105.972 114.504,106.109 115.125,106.265 115.469 C 106.462 115.904,106.490 115.715,106.357 114.844 C 106.136 113.393,105.928 112.997,105.959 114.089 M291.293 115.781 C 291.264 116.125,291.163 116.758,291.068 117.188 C 290.918 117.862,290.943 117.893,291.248 117.414 C 291.443 117.109,291.544 116.476,291.473 116.008 C 291.389 115.453,291.326 115.374,291.293 115.781 M135.362 115.781 C 135.361 115.953,135.550 116.586,135.781 117.188 C 136.013 117.789,136.207 118.070,136.212 117.813 C 136.217 117.555,136.029 116.922,135.793 116.406 C 135.556 115.891,135.363 115.609,135.362 115.781 M106.880 118.307 C 106.882 118.637,107.027 119.117,107.202 119.375 C 107.433 119.717,107.462 119.591,107.309 118.906 C 107.052 117.757,106.873 117.508,106.880 118.307 M290.507 119.231 C 290.400 119.510,290.325 119.973,290.339 120.260 C 290.354 120.547,290.490 120.366,290.642 119.859 C 290.936 118.873,290.832 118.385,290.507 119.231 M245.781 119.855 C 245.000 120.231,244.974 120.275,245.625 120.115 C 246.510 119.899,247.506 119.392,247.031 119.399 C 246.859 119.401,246.297 119.606,245.781 119.855 M260.052 120.297 C 259.870 120.821,259.786 121.250,259.868 121.250 C 260.079 121.250,260.668 119.627,260.514 119.472 C 260.443 119.401,260.235 119.772,260.052 120.297 M137.045 120.703 C 137.162 121.090,137.386 121.544,137.544 121.712 C 137.701 121.880,137.671 121.563,137.478 121.008 C 137.082 119.873,136.717 119.615,137.045 120.703 M107.544 120.625 C 107.544 120.883,107.665 121.375,107.813 121.719 C 107.982 122.113,108.081 122.170,108.081 121.875 C 108.081 121.617,107.960 121.125,107.813 120.781 C 107.643 120.387,107.544 120.330,107.544 120.625 M108.296 123.594 C 108.418 124.110,108.638 124.662,108.785 124.823 C 108.932 124.983,108.918 124.647,108.754 124.077 C 108.373 122.748,108.003 122.359,108.296 123.594 M258.488 123.920 C 257.965 125.069,258.065 125.314,258.631 124.269 C 258.895 123.781,259.053 123.324,258.981 123.252 C 258.910 123.181,258.688 123.481,258.488 123.920 M288.785 125.035 C 288.592 125.587,288.489 126.094,288.556 126.160 C 288.623 126.227,288.835 125.830,289.028 125.278 C 289.220 124.726,289.323 124.219,289.256 124.152 C 289.189 124.085,288.977 124.482,288.785 125.035 M229.375 125.469 C 228.773 125.700,228.492 125.894,228.750 125.900 C 229.008 125.905,229.641 125.716,230.156 125.480 C 231.363 124.927,230.802 124.919,229.375 125.469 M109.257 126.406 C 109.368 126.922,109.583 127.555,109.734 127.813 C 109.910 128.112,109.936 127.944,109.806 127.344 C 109.694 126.828,109.480 126.195,109.329 125.938 C 109.153 125.638,109.127 125.806,109.257 126.406 M139.397 125.781 C 139.397 125.953,139.598 126.445,139.844 126.875 C 140.089 127.305,140.290 127.516,140.290 127.344 C 140.290 127.172,140.089 126.680,139.844 126.250 C 139.598 125.820,139.397 125.609,139.397 125.781 M140.938 129.063 C 141.288 129.750,141.646 130.313,141.731 130.313 C 141.817 130.313,141.601 129.750,141.250 129.063 C 140.899 128.375,140.542 127.813,140.456 127.813 C 140.370 127.813,140.587 128.375,140.938 129.063 M287.222 129.097 C 287.030 129.649,286.927 130.156,286.994 130.223 C 287.061 130.290,287.273 129.893,287.465 129.340 C 287.658 128.788,287.761 128.281,287.694 128.215 C 287.627 128.148,287.415 128.545,287.222 129.097 M256.017 128.828 C 255.575 129.386,254.953 130.625,255.114 130.625 C 255.189 130.625,255.541 130.133,255.896 129.531 C 256.541 128.438,256.601 128.091,256.017 128.828 M110.804 130.625 C 110.919 131.055,111.143 131.617,111.303 131.875 C 111.504 132.201,111.529 132.105,111.383 131.563 C 111.268 131.133,111.044 130.570,110.885 130.313 C 110.683 129.987,110.659 130.082,110.804 130.625 M285.964 132.045 C 285.077 134.050,285.168 134.240,286.130 132.391 C 286.563 131.558,286.850 130.808,286.766 130.725 C 286.683 130.641,286.322 131.235,285.964 132.045 M240.312 133.516 C 239.851 134.144,239.776 134.362,240.114 134.088 C 240.626 133.672,241.401 132.500,241.164 132.500 C 241.104 132.500,240.720 132.957,240.312 133.516 M144.826 135.469 C 145.614 136.838,148.750 141.112,148.750 140.818 C 148.750 140.570,145.188 135.452,144.592 134.844 C 144.424 134.672,144.529 134.953,144.826 135.469 M251.278 136.172 C 250.509 137.295,250.462 137.428,251.084 136.719 C 251.911 135.775,252.620 134.688,252.408 134.688 C 252.345 134.688,251.837 135.355,251.278 136.172 M283.594 136.875 C 283.158 137.734,282.872 138.438,282.958 138.438 C 283.044 138.438,283.471 137.734,283.906 136.875 C 284.342 136.016,284.628 135.313,284.542 135.313 C 284.456 135.313,284.029 136.016,283.594 136.875 M196.719 136.730 C 195.937 137.106,195.911 137.150,196.563 136.990 C 197.448 136.774,198.443 136.267,197.969 136.274 C 197.797 136.276,197.234 136.481,196.719 136.730 M282.031 139.688 C 281.765 140.203,281.617 140.625,281.703 140.625 C 281.789 140.625,282.077 140.203,282.344 139.688 C 282.610 139.172,282.758 138.750,282.672 138.750 C 282.586 138.750,282.298 139.172,282.031 139.688 M247.616 140.847 C 246.779 141.828,246.257 142.531,246.456 142.408 C 246.893 142.140,249.496 139.063,249.286 139.063 C 249.205 139.063,248.453 139.865,247.616 140.847 M233.574 141.953 L 232.656 142.969 233.672 142.051 C 234.230 141.546,234.688 141.089,234.688 141.035 C 234.688 140.794,234.430 141.006,233.574 141.953 M280.028 143.047 C 279.318 144.207,279.056 144.771,279.446 144.301 C 280.210 143.382,281.666 140.938,281.450 140.938 C 281.379 140.938,280.739 141.887,280.028 143.047 M149.997 142.496 C 150.539 143.181,151.146 143.842,151.346 143.965 C 151.545 144.089,151.167 143.528,150.504 142.720 C 149.842 141.911,149.235 141.250,149.155 141.250 C 149.075 141.250,149.454 141.811,149.997 142.496 M244.844 144.063 C 244.172 144.750,243.757 145.301,243.921 145.286 C 244.208 145.261,246.457 142.813,246.193 142.813 C 246.122 142.813,245.515 143.375,244.844 144.063 M227.495 148.359 L 223.594 152.344 227.578 148.442 C 231.279 144.818,231.704 144.375,231.480 144.375 C 231.434 144.375,229.641 146.168,227.495 148.359 M118.773 146.797 C 119.157 147.441,119.675 148.180,119.923 148.438 C 120.172 148.695,119.927 148.168,119.379 147.266 C 118.832 146.363,118.314 145.625,118.229 145.625 C 118.144 145.625,118.388 146.152,118.773 146.797 M241.250 147.969 C 239.970 149.258,238.992 150.313,239.078 150.313 C 239.164 150.313,240.282 149.258,241.563 147.969 C 242.843 146.680,243.820 145.625,243.734 145.625 C 243.648 145.625,242.530 146.680,241.250 147.969 M157.656 150.938 C 160.230 153.516,162.406 155.625,162.492 155.625 C 162.578 155.625,160.543 153.516,157.969 150.938 C 155.395 148.359,153.219 146.250,153.133 146.250 C 153.047 146.250,155.082 148.359,157.656 150.938 M275.624 149.453 C 275.164 150.082,275.088 150.300,275.426 150.026 C 275.939 149.610,276.713 148.438,276.476 148.438 C 276.416 148.438,276.033 148.895,275.624 149.453 M234.844 154.270 L 231.094 157.891 234.568 154.730 C 237.793 151.797,238.997 150.606,238.710 150.638 C 238.646 150.645,236.906 152.279,234.844 154.270 M273.249 152.578 C 271.917 154.115,271.423 154.785,271.774 154.581 C 271.976 154.463,272.586 153.806,273.128 153.121 C 274.181 151.792,274.267 151.404,273.249 152.578 M169.844 153.438 C 170.515 154.125,171.135 154.688,171.221 154.688 C 171.307 154.688,170.828 154.125,170.156 153.438 C 169.485 152.750,168.865 152.188,168.779 152.188 C 168.693 152.188,169.172 152.750,169.844 153.438 M123.437 153.672 C 123.845 154.230,124.229 154.688,124.289 154.688 C 124.526 154.688,123.751 153.515,123.239 153.099 C 122.901 152.825,122.976 153.043,123.437 153.672 M125.313 156.250 C 125.857 156.938,126.373 157.500,126.459 157.500 C 126.545 157.500,126.170 156.938,125.625 156.250 C 125.080 155.563,124.565 155.000,124.479 155.000 C 124.393 155.000,124.768 155.563,125.313 156.250 M269.523 157.109 C 268.512 158.270,268.010 158.938,268.408 158.594 C 269.206 157.905,271.698 155.000,271.491 155.000 C 271.419 155.000,270.534 155.949,269.523 157.109 M162.842 156.016 C 162.915 156.059,163.537 156.586,164.222 157.188 L 165.469 158.281 164.392 157.109 C 163.800 156.465,163.178 155.938,163.012 155.938 C 162.845 155.938,162.768 155.973,162.842 156.016 M174.844 157.785 C 175.497 158.538,177.813 160.456,177.813 160.242 C 177.813 160.175,177.004 159.432,176.016 158.591 C 175.027 157.751,174.500 157.388,174.844 157.785 M127.731 159.219 C 128.260 159.906,129.701 161.523,130.932 162.813 C 132.943 164.918,132.894 164.838,130.445 162.031 C 127.254 158.373,126.389 157.477,127.731 159.219 M226.875 161.305 C 225.678 162.413,225.536 162.609,226.406 161.951 C 227.566 161.075,229.011 159.670,228.720 159.701 C 228.651 159.708,227.820 160.430,226.875 161.305 M266.233 160.859 L 265.156 162.031 266.328 160.954 C 267.419 159.952,267.644 159.688,267.405 159.688 C 267.353 159.688,266.825 160.215,266.233 160.859 M169.375 161.354 C 169.375 161.440,169.938 161.955,170.625 162.500 C 171.313 163.045,171.875 163.420,171.875 163.334 C 171.875 163.248,171.313 162.732,170.625 162.188 C 169.938 161.643,169.375 161.268,169.375 161.354 M181.250 162.916 C 181.250 163.002,181.813 163.518,182.500 164.063 C 183.188 164.607,183.750 164.982,183.750 164.896 C 183.750 164.810,183.188 164.295,182.500 163.750 C 181.813 163.205,181.250 162.830,181.250 162.916 M262.483 164.922 L 261.406 166.094 262.578 165.017 C 263.669 164.014,263.894 163.750,263.655 163.750 C 263.603 163.750,263.075 164.277,262.483 164.922 M173.722 164.786 C 174.204 165.393,175.938 166.698,175.938 166.454 C 175.938 166.371,175.340 165.836,174.609 165.267 C 173.879 164.697,173.480 164.481,173.722 164.786 M258.898 168.516 L 256.719 170.781 258.984 168.602 C 261.089 166.578,261.393 166.250,261.163 166.250 C 261.116 166.250,260.096 167.270,258.898 168.516 M176.250 166.678 C 176.250 166.754,176.988 167.328,177.891 167.953 C 179.389 168.991,179.437 169.005,178.438 168.116 C 177.336 167.137,176.250 166.423,176.250 166.678 M179.688 169.186 C 179.688 169.267,180.145 169.653,180.703 170.045 C 181.424 170.550,181.590 170.597,181.276 170.205 C 180.828 169.648,179.688 168.916,179.688 169.186 M215.469 170.503 L 214.219 171.622 215.547 170.628 C 216.690 169.773,217.102 169.361,216.797 169.380 C 216.754 169.382,216.156 169.888,215.469 170.503 M182.500 171.238 C 182.930 171.598,183.563 172.039,183.906 172.217 C 184.333 172.439,184.283 172.334,183.750 171.887 C 183.320 171.527,182.688 171.086,182.344 170.908 C 181.917 170.686,181.967 170.791,182.500 171.238 M140.726 172.725 C 143.980 175.739,144.704 176.242,141.884 173.530 C 140.418 172.120,139.124 170.960,139.008 170.952 C 138.891 170.944,139.665 171.742,140.726 172.725 M253.737 173.359 L 252.344 174.844 253.900 173.438 C 254.757 172.664,255.518 171.996,255.593 171.953 C 255.668 171.910,255.594 171.875,255.430 171.875 C 255.265 171.875,254.503 172.543,253.737 173.359 M211.406 173.628 L 210.156 174.747 211.484 173.753 C 212.627 172.898,213.040 172.486,212.734 172.505 C 212.691 172.507,212.094 173.013,211.406 173.628 M187.813 174.785 C 187.813 174.857,188.410 175.311,189.141 175.793 C 189.871 176.275,190.304 176.469,190.102 176.225 C 189.714 175.756,187.813 174.559,187.813 174.785 M249.521 177.123 C 247.200 179.335,247.788 178.958,250.533 176.473 C 251.428 175.663,252.061 175.006,251.940 175.014 C 251.818 175.021,250.730 175.970,249.521 177.123 M207.192 176.782 C 207.190 176.988,208.207 177.817,209.453 178.623 C 210.699 179.429,212.035 180.295,212.422 180.549 C 212.809 180.802,213.125 180.940,213.125 180.855 C 213.125 180.770,211.895 179.886,210.391 178.891 C 208.887 177.895,207.553 176.929,207.427 176.743 C 207.269 176.512,207.196 176.524,207.192 176.782 M192.031 177.662 C 192.375 177.942,192.938 178.309,193.281 178.478 L 193.906 178.784 193.281 178.276 C 192.938 177.996,192.375 177.629,192.031 177.460 L 191.406 177.153 192.031 177.662 M148.036 179.125 C 149.918 180.716,150.324 180.901,148.769 179.460 C 147.985 178.733,147.233 178.135,147.099 178.131 C 146.964 178.128,147.385 178.575,148.036 179.125 M194.688 179.358 C 195.797 180.295,196.844 180.879,196.352 180.286 C 196.151 180.043,195.518 179.586,194.946 179.271 L 193.906 178.698 194.688 179.358 M244.044 181.899 L 242.344 183.485 244.141 181.996 C 245.790 180.628,246.109 180.313,245.841 180.313 C 245.788 180.313,244.979 181.026,244.044 181.899 M196.875 180.745 C 196.875 180.811,197.262 181.114,197.734 181.419 L 198.594 181.972 197.998 181.298 C 197.472 180.702,196.875 180.409,196.875 180.745 M150.753 181.204 C 151.005 181.611,154.688 184.477,154.688 184.266 C 154.688 184.185,153.754 183.386,152.614 182.490 C 151.474 181.594,150.636 181.015,150.753 181.204 M216.168 182.867 C 216.617 183.404,218.593 184.567,218.328 184.139 C 218.218 183.960,217.608 183.507,216.974 183.133 C 216.340 182.759,215.978 182.639,216.168 182.867 M200.781 183.287 C 201.125 183.567,201.688 183.934,202.031 184.103 L 202.656 184.409 202.031 183.901 C 201.688 183.621,201.125 183.254,200.781 183.085 L 200.156 182.778 200.781 183.287 M155.287 184.795 C 155.734 185.352,156.875 186.084,156.875 185.814 C 156.875 185.733,156.418 185.347,155.859 184.955 C 155.139 184.450,154.972 184.403,155.287 184.795 M203.281 184.849 C 203.625 185.129,204.188 185.496,204.531 185.665 L 205.156 185.972 204.531 185.463 C 204.188 185.183,203.625 184.816,203.281 184.647 L 202.656 184.341 203.281 184.849 M239.063 185.992 C 237.865 187.100,237.723 187.296,238.594 186.638 C 239.753 185.762,241.198 184.357,240.908 184.389 C 240.838 184.396,240.008 185.118,239.063 185.992 M157.199 186.162 C 157.211 186.411,160.625 188.885,160.625 188.645 C 160.625 188.572,159.852 187.929,158.906 187.215 C 157.961 186.501,157.193 186.027,157.199 186.162 M205.313 186.035 C 205.313 186.107,205.910 186.561,206.641 187.043 C 207.371 187.525,207.804 187.719,207.602 187.475 C 207.214 187.006,205.313 185.809,205.313 186.035 M223.438 187.597 C 223.438 187.729,225.654 189.292,226.557 189.797 C 226.818 189.943,226.609 189.708,226.094 189.275 C 225.073 188.418,223.438 187.385,223.438 187.597 M233.959 190.002 C 230.958 192.422,230.868 192.469,230.130 191.986 C 229.715 191.713,229.375 191.561,229.375 191.647 C 229.375 191.733,229.716 192.027,230.134 192.300 C 230.876 192.786,230.962 192.742,234.040 190.285 C 236.742 188.129,237.486 187.456,237.109 187.511 C 237.066 187.518,235.649 188.638,233.959 190.002 M208.594 188.287 C 208.938 188.567,209.500 188.934,209.844 189.103 L 210.469 189.409 209.844 188.901 C 209.500 188.621,208.938 188.254,208.594 188.085 L 207.969 187.778 208.594 188.287 M211.563 190.104 C 211.563 190.189,212.301 190.707,213.203 191.254 C 214.105 191.802,214.633 192.047,214.375 191.798 C 213.792 191.236,211.563 189.893,211.563 190.104 M168.335 194.089 C 168.537 194.332,169.170 194.789,169.742 195.104 L 170.781 195.677 170.000 195.017 C 168.891 194.080,167.843 193.496,168.335 194.089 M218.750 194.785 C 218.750 194.857,219.348 195.311,220.078 195.793 C 220.809 196.275,221.241 196.469,221.040 196.225 C 220.652 195.756,218.750 194.559,218.750 194.785 M173.023 197.212 C 173.411 197.682,175.313 198.878,175.313 198.653 C 175.313 198.580,174.715 198.126,173.984 197.645 C 173.254 197.163,172.821 196.968,173.023 197.212 M225.313 199.155 C 225.313 199.218,225.980 199.726,226.797 200.284 C 227.920 201.053,228.053 201.100,227.344 200.478 C 226.400 199.651,225.313 198.943,225.313 199.155 M228.438 201.336 C 228.438 201.396,228.895 201.780,229.453 202.188 C 230.082 202.649,230.300 202.724,230.026 202.386 C 229.610 201.874,228.438 201.099,228.438 201.336 M231.563 203.553 C 231.563 203.629,232.301 204.203,233.203 204.828 C 234.702 205.866,234.749 205.880,233.750 204.991 C 232.648 204.012,231.563 203.298,231.563 203.553 M165.867 207.915 C 164.539 208.980,163.203 210.113,162.898 210.434 C 162.593 210.754,163.647 209.997,165.239 208.751 C 167.715 206.815,168.775 205.872,168.378 205.959 C 168.325 205.970,167.195 206.851,165.867 207.915 M170.625 206.031 C 170.625 206.146,171.931 207.047,174.766 208.889 C 175.238 209.196,175.625 209.373,175.625 209.283 C 175.625 209.193,174.676 208.499,173.516 207.740 C 170.898 206.030,170.625 205.868,170.625 206.031 M188.511 207.258 C 189.439 208.047,191.250 209.178,191.250 208.968 C 191.250 208.897,190.441 208.319,189.453 207.685 C 188.465 207.051,188.041 206.859,188.511 207.258 M237.656 208.031 C 238.318 208.686,242.500 211.894,242.500 211.745 C 242.500 211.568,238.530 208.381,237.813 207.982 C 237.502 207.809,237.449 207.825,237.656 208.031 M192.031 209.537 C 192.375 209.817,192.938 210.184,193.281 210.353 L 193.906 210.659 193.281 210.151 C 192.938 209.871,192.375 209.504,192.031 209.335 L 191.406 209.028 192.031 209.537 M176.406 209.849 C 176.750 210.129,177.313 210.496,177.656 210.665 L 178.281 210.972 177.656 210.463 C 177.313 210.183,176.750 209.816,176.406 209.647 L 175.781 209.341 176.406 209.849 M194.273 210.964 C 194.474 211.207,195.107 211.664,195.679 211.979 L 196.719 212.552 195.938 211.892 C 194.828 210.955,193.781 210.371,194.273 210.964 M245.625 214.373 C 246.227 214.915,247.281 215.785,247.969 216.306 C 249.171 217.217,249.165 217.204,247.813 215.964 C 247.039 215.255,245.984 214.385,245.469 214.031 C 244.661 213.477,244.682 213.524,245.625 214.373 M156.406 215.807 L 154.531 217.551 156.484 215.916 C 158.221 214.462,158.627 214.061,158.359 214.063 C 158.316 214.063,157.438 214.848,156.406 215.807 M200.313 214.785 C 200.313 214.857,200.910 215.311,201.641 215.793 C 202.371 216.275,202.804 216.469,202.602 216.225 C 202.214 215.756,200.313 214.559,200.313 214.785 M188.594 217.662 C 188.938 217.942,189.500 218.309,189.844 218.478 L 190.469 218.784 189.844 218.276 C 189.500 217.996,188.938 217.629,188.594 217.460 L 187.969 217.153 188.594 217.662 M205.625 218.425 C 206.055 218.786,206.688 219.226,207.031 219.405 C 207.458 219.626,207.408 219.521,206.875 219.075 C 206.445 218.714,205.813 218.274,205.469 218.095 C 205.042 217.874,205.092 217.979,205.625 218.425 M151.364 220.183 L 149.219 222.241 151.484 220.275 C 152.730 219.195,153.750 218.268,153.750 218.218 C 153.750 217.951,153.324 218.302,151.364 220.183 M253.967 221.671 C 256.063 223.684,259.440 227.050,261.471 229.150 C 263.502 231.250,264.743 232.477,264.229 231.875 C 262.471 229.818,254.534 221.834,252.344 219.921 C 251.141 218.870,251.871 219.657,253.967 221.671 M209.375 220.902 C 210.404 221.731,220.508 229.097,221.365 229.644 C 222.656 230.467,221.196 229.295,217.500 226.542 C 214.028 223.956,207.784 219.622,209.375 220.902 M191.875 221.719 C 191.293 222.148,190.949 222.495,191.111 222.489 C 191.425 222.477,193.402 220.942,193.108 220.939 C 193.012 220.938,192.457 221.289,191.875 221.719 M147.500 223.531 C 146.727 224.260,145.891 225.135,145.642 225.475 C 145.394 225.815,146.062 225.254,147.127 224.229 C 148.886 222.533,149.218 222.170,148.984 222.196 C 148.941 222.201,148.273 222.802,147.500 223.531 M187.476 225.209 L 186.719 226.044 187.568 225.444 C 188.036 225.114,188.422 224.738,188.428 224.609 C 188.444 224.225,188.272 224.333,187.476 225.209 M185.000 227.216 L 183.594 228.493 184.918 227.505 C 186.084 226.635,186.791 225.936,186.503 225.938 C 186.450 225.939,185.773 226.514,185.000 227.216 M142.021 228.828 L 140.156 230.781 142.109 228.916 C 143.924 227.183,144.205 226.875,143.975 226.875 C 143.926 226.875,143.047 227.754,142.021 228.828 M181.406 230.032 C 179.093 231.993,178.155 232.951,179.844 231.628 C 181.591 230.260,183.624 228.463,183.438 228.452 C 183.352 228.447,182.438 229.158,181.406 230.032 M138.733 232.109 L 137.656 233.281 138.828 232.204 C 139.919 231.202,140.144 230.938,139.905 230.938 C 139.853 230.938,139.325 231.465,138.733 232.109 M224.157 231.774 C 224.282 231.976,224.974 232.609,225.696 233.180 C 226.417 233.751,226.905 234.053,226.781 233.851 C 226.656 233.649,225.963 233.016,225.242 232.445 C 224.520 231.874,224.032 231.572,224.157 231.774 M227.188 234.154 C 227.188 234.240,228.172 235.183,229.375 236.250 C 230.578 237.317,231.563 238.119,231.563 238.033 C 231.563 237.947,230.578 237.004,229.375 235.938 C 228.172 234.871,227.188 234.068,227.188 234.154 M213.125 234.473 C 213.125 234.550,213.641 235.007,214.272 235.488 C 214.903 235.970,215.321 236.204,215.200 236.009 C 214.953 235.609,213.125 234.256,213.125 234.473 M134.983 236.172 L 133.906 237.344 135.078 236.267 C 136.169 235.264,136.394 235.000,136.155 235.000 C 136.103 235.000,135.575 235.527,134.983 236.172 M166.163 243.828 C 160.123 249.838,159.918 250.066,164.977 245.149 C 168.341 241.879,171.771 238.609,172.598 237.883 C 173.426 237.157,173.959 236.563,173.783 236.563 C 173.608 236.563,170.178 239.832,166.163 243.828 M132.483 238.984 L 131.406 240.156 132.578 239.079 C 133.669 238.077,133.894 237.813,133.655 237.813 C 133.603 237.813,133.075 238.340,132.483 238.984 M270.299 239.609 C 270.880 240.340,271.411 240.938,271.480 240.938 C 271.701 240.938,270.361 239.179,269.793 238.722 C 269.491 238.480,269.719 238.879,270.299 239.609 M234.375 240.781 C 235.482 241.898,236.459 242.813,236.544 242.813 C 236.630 242.813,235.795 241.898,234.688 240.781 C 233.580 239.664,232.604 238.750,232.518 238.750 C 232.432 238.750,233.268 239.664,234.375 240.781 M130.494 241.182 L 129.894 242.031 130.728 241.274 C 131.605 240.478,131.713 240.306,131.328 240.322 C 131.199 240.328,130.824 240.714,130.494 241.182 M272.188 242.188 C 272.555 242.703,272.925 243.125,273.011 243.125 C 273.097 243.125,272.867 242.703,272.500 242.188 C 272.133 241.672,271.762 241.250,271.676 241.250 C 271.590 241.250,271.820 241.672,272.188 242.188 M129.187 242.891 C 127.855 244.427,127.361 245.097,127.712 244.893 C 127.914 244.775,128.523 244.118,129.066 243.433 C 130.118 242.105,130.205 241.717,129.187 242.891 M236.875 243.002 C 236.875 243.164,238.035 244.418,239.453 245.789 L 242.031 248.281 239.531 245.634 C 238.156 244.178,236.996 242.924,236.953 242.848 C 236.910 242.771,236.875 242.841,236.875 243.002 M225.938 245.156 C 226.521 245.758,227.068 246.250,227.154 246.250 C 227.240 246.250,226.833 245.758,226.250 245.156 C 225.667 244.555,225.120 244.063,225.034 244.063 C 224.948 244.063,225.354 244.555,225.938 245.156 M175.457 246.953 L 173.906 248.594 175.618 247.031 C 176.560 246.172,177.392 245.434,177.467 245.391 C 177.543 245.348,177.470 245.313,177.306 245.313 C 177.142 245.313,176.310 246.051,175.457 246.953 M125.387 247.734 C 124.449 248.933,123.164 250.906,123.503 250.625 C 123.836 250.349,126.566 246.563,126.432 246.563 C 126.361 246.563,125.890 247.090,125.387 247.734 M230.275 249.109 C 231.611 250.505,232.185 251.326,232.023 251.609 C 231.828 251.952,231.863 251.957,232.211 251.634 C 232.566 251.304,232.270 250.882,230.463 249.134 L 228.287 247.031 230.275 249.109 M243.725 250.547 C 244.650 251.621,245.469 252.500,245.545 252.500 C 245.751 252.500,243.230 249.536,242.594 249.031 C 242.291 248.790,242.800 249.473,243.725 250.547 M278.750 252.500 C 279.101 253.188,279.458 253.750,279.544 253.750 C 279.630 253.750,279.413 253.188,279.063 252.500 C 278.712 251.813,278.354 251.250,278.269 251.250 C 278.183 251.250,278.399 251.813,278.750 252.500 M246.563 254.063 C 247.107 254.750,247.623 255.313,247.709 255.313 C 247.795 255.313,247.420 254.750,246.875 254.063 C 246.330 253.375,245.815 252.813,245.729 252.813 C 245.643 252.813,246.018 253.375,246.563 254.063 M155.909 254.609 C 154.570 256.102,153.961 256.875,154.121 256.875 C 154.207 256.875,154.870 256.172,155.595 255.313 C 156.988 253.660,157.215 253.153,155.909 254.609 M166.233 256.172 L 165.156 257.344 166.328 256.267 C 167.419 255.264,167.644 255.000,167.405 255.000 C 167.353 255.000,166.825 255.527,166.233 256.172 M281.313 257.337 C 281.687 258.107,282.046 258.683,282.112 258.617 C 282.253 258.476,280.991 255.938,280.779 255.938 C 280.699 255.938,280.939 256.567,281.313 257.337 M152.154 259.227 C 151.437 260.177,150.905 261.002,150.972 261.060 C 151.039 261.118,151.690 260.341,152.419 259.333 C 154.098 257.010,153.891 256.927,152.154 259.227 M163.733 258.984 L 162.656 260.156 163.828 259.079 C 164.919 258.077,165.144 257.813,164.905 257.813 C 164.853 257.813,164.325 258.340,163.733 258.984 M283.177 261.266 C 283.360 261.790,283.568 262.161,283.639 262.091 C 283.793 261.936,283.204 260.313,282.993 260.313 C 282.911 260.313,282.995 260.742,283.177 261.266 M149.248 263.359 C 148.613 264.348,148.421 264.772,148.821 264.302 C 149.609 263.374,150.740 261.563,150.531 261.563 C 150.459 261.563,149.882 262.371,149.248 263.359 M158.706 265.234 C 157.807 266.320,157.426 266.875,157.581 266.875 C 157.667 266.875,158.114 266.383,158.573 265.781 C 159.424 264.665,159.527 264.244,158.706 265.234 M254.844 266.563 C 255.110 267.078,255.399 267.500,255.485 267.500 C 255.571 267.500,255.423 267.078,255.156 266.563 C 254.890 266.047,254.601 265.625,254.515 265.625 C 254.429 265.625,254.577 266.047,254.844 266.563 M114.113 266.732 C 113.590 267.881,113.690 268.126,114.256 267.082 C 114.520 266.594,114.678 266.136,114.606 266.065 C 114.535 265.993,114.313 266.294,114.113 266.732 M112.484 270.512 C 112.311 270.966,112.228 271.395,112.299 271.466 C 112.370 271.536,112.577 271.165,112.760 270.641 C 113.166 269.475,112.921 269.361,112.484 270.512 M287.183 271.548 C 287.347 272.118,287.567 272.671,287.672 272.776 C 287.966 273.070,287.456 271.134,287.153 270.802 C 287.006 270.642,287.020 270.978,287.183 271.548 M172.969 272.042 C 172.187 272.419,172.161 272.462,172.813 272.303 C 173.698 272.086,174.693 271.579,174.219 271.586 C 174.047 271.589,173.484 271.794,172.969 272.042 M258.295 273.516 C 258.412 273.902,258.636 274.356,258.794 274.524 C 258.951 274.692,258.921 274.376,258.728 273.821 C 258.332 272.686,257.967 272.428,258.295 273.516 M287.856 273.438 C 287.856 273.695,287.977 274.188,288.125 274.531 C 288.294 274.925,288.394 274.983,288.394 274.688 C 288.394 274.430,288.273 273.938,288.125 273.594 C 287.956 273.200,287.856 273.142,287.856 273.438 M143.036 273.815 C 142.944 274.037,142.644 274.746,142.368 275.391 C 142.092 276.035,141.932 276.563,142.012 276.563 C 142.221 276.563,143.469 273.678,143.324 273.532 C 143.257 273.465,143.127 273.592,143.036 273.815 M110.972 274.722 C 110.780 275.274,110.677 275.781,110.744 275.848 C 110.811 275.915,111.023 275.518,111.215 274.965 C 111.408 274.413,111.511 273.906,111.444 273.840 C 111.377 273.773,111.165 274.170,110.972 274.722 M288.632 276.094 C 288.743 276.609,288.958 277.242,289.109 277.500 C 289.285 277.800,289.311 277.631,289.181 277.031 C 289.069 276.516,288.855 275.883,288.704 275.625 C 288.528 275.325,288.502 275.494,288.632 276.094 M259.858 277.266 C 259.975 277.652,260.199 278.106,260.356 278.274 C 260.513 278.442,260.484 278.126,260.290 277.571 C 259.895 276.436,259.529 276.178,259.858 277.266 M141.285 277.847 C 141.092 278.399,140.989 278.906,141.056 278.973 C 141.123 279.040,141.335 278.643,141.528 278.090 C 141.720 277.538,141.823 277.031,141.756 276.965 C 141.689 276.898,141.477 277.295,141.285 277.847 M150.521 278.646 C 150.236 278.931,150.257 280.000,150.547 280.000 C 150.676 280.000,150.781 279.648,150.781 279.219 C 150.781 278.789,150.770 278.438,150.755 278.438 C 150.741 278.438,150.635 278.531,150.521 278.646 M109.576 279.297 C 109.491 279.598,109.340 280.336,109.241 280.938 C 109.014 282.304,109.500 281.266,109.789 279.766 C 109.994 278.699,109.840 278.359,109.576 279.297 M289.566 279.531 C 289.823 280.680,290.002 280.930,289.995 280.130 C 289.993 279.801,289.848 279.320,289.673 279.063 C 289.442 278.720,289.413 278.847,289.566 279.531 M140.000 281.018 C 140.000 281.062,139.862 281.580,139.693 282.168 C 139.524 282.757,139.506 283.108,139.653 282.948 C 139.972 282.599,140.393 280.938,140.162 280.938 C 140.073 280.938,140.000 280.974,140.000 281.018 M290.202 282.188 C 290.449 283.535,290.627 283.789,290.620 282.786 C 290.618 282.371,290.477 281.820,290.308 281.563 C 290.092 281.233,290.060 281.418,290.202 282.188 M108.632 283.293 C 108.525 283.573,108.452 284.106,108.469 284.479 C 108.490 284.907,108.596 284.755,108.758 284.065 C 109.031 282.903,108.957 282.448,108.632 283.293 M291.124 286.719 C 291.383 288.269,291.564 288.518,291.558 287.318 C 291.555 286.816,291.409 286.195,291.234 285.938 C 291.005 285.602,290.974 285.823,291.124 286.719 M263.130 287.057 C 263.132 287.387,263.277 287.867,263.452 288.125 C 263.683 288.467,263.712 288.341,263.559 287.656 C 263.302 286.507,263.123 286.258,263.130 287.057 M138.008 287.852 C 137.747 289.154,138.000 289.407,138.281 288.125 C 138.400 287.585,138.432 287.078,138.352 286.998 C 138.273 286.918,138.118 287.303,138.008 287.852 M107.656 289.063 C 107.534 290.115,107.501 291.042,107.582 291.123 C 107.663 291.205,107.827 290.408,107.946 289.353 C 108.066 288.298,108.099 287.370,108.021 287.292 C 107.942 287.213,107.778 288.010,107.656 289.063 M263.951 290.469 C 264.057 291.156,264.263 291.930,264.410 292.188 C 264.733 292.754,264.401 290.758,264.020 289.844 C 263.856 289.450,263.831 289.680,263.951 290.469 M137.397 290.591 C 137.282 291.168,137.203 291.939,137.222 292.305 C 137.241 292.670,137.381 292.336,137.533 291.563 C 137.685 290.789,137.764 290.018,137.708 289.849 C 137.653 289.679,137.513 290.013,137.397 290.591 M291.912 290.964 C 291.932 291.551,292.063 292.453,292.203 292.969 C 292.371 293.585,292.398 293.264,292.284 292.031 C 292.091 289.965,291.854 289.282,291.912 290.964 M107.079 295.234 C 106.833 297.838,106.861 302.134,107.137 304.219 C 107.251 305.078,107.344 302.934,107.344 299.453 C 107.344 292.297,107.349 292.375,107.079 295.234 M264.709 294.089 C 264.722 294.504,264.859 295.125,265.015 295.469 C 265.212 295.904,265.240 295.715,265.107 294.844 C 264.886 293.393,264.678 292.997,264.709 294.089 M292.736 297.656 C 292.826 299.031,292.950 300.215,293.012 300.286 C 293.221 300.527,293.054 297.041,292.811 296.094 C 292.675 295.562,292.643 296.238,292.736 297.656 M136.485 299.453 C 136.389 301.559,136.409 304.477,136.529 305.938 C 136.696 307.987,136.755 307.112,136.786 302.109 C 136.832 294.738,136.736 293.896,136.485 299.453 M265.531 299.063 C 265.624 300.180,265.811 301.586,265.948 302.188 C 266.103 302.868,266.129 302.395,266.017 300.938 C 265.918 299.648,265.731 298.242,265.600 297.813 C 265.470 297.383,265.439 297.945,265.531 299.063 M145.439 297.933 C 145.348 298.171,145.328 298.980,145.394 299.730 L 145.516 301.094 145.570 299.479 C 145.603 298.525,145.785 297.800,146.016 297.707 C 146.322 297.584,146.319 297.544,146.006 297.525 C 145.786 297.511,145.531 297.695,145.439 297.933 M293.219 302.500 C 293.219 303.445,293.277 303.832,293.349 303.359 C 293.420 302.887,293.420 302.113,293.349 301.641 C 293.277 301.168,293.219 301.555,293.219 302.500 M145.418 305.625 C 145.418 306.914,145.473 307.441,145.540 306.797 C 145.608 306.152,145.608 305.098,145.540 304.453 C 145.473 303.809,145.418 304.336,145.418 305.625 M257.600 306.875 C 257.600 307.992,257.657 308.449,257.726 307.891 C 257.795 307.332,257.795 306.418,257.726 305.859 C 257.657 305.301,257.600 305.758,257.600 306.875 M266.406 314.844 C 266.406 320.445,266.496 323.675,266.610 322.188 C 266.863 318.875,266.858 310.309,266.600 307.188 C 266.493 305.898,266.406 309.344,266.406 314.844 M107.562 308.281 C 107.554 308.797,107.659 309.852,107.797 310.625 C 107.981 311.662,108.051 311.785,108.063 311.094 C 108.071 310.578,107.966 309.523,107.828 308.750 C 107.644 307.713,107.574 307.590,107.562 308.281 M293.567 313.281 C 293.567 316.375,293.614 317.598,293.671 316.000 C 293.727 314.401,293.727 311.870,293.670 310.375 C 293.613 308.880,293.566 310.188,293.567 313.281 M230.469 309.855 C 229.687 310.231,229.661 310.275,230.313 310.115 C 231.198 309.899,232.193 309.392,231.719 309.399 C 231.547 309.401,230.984 309.606,230.469 309.855 M257.937 314.688 C 257.937 317.180,257.985 318.199,258.045 316.953 C 258.104 315.707,258.104 313.668,258.045 312.422 C 257.985 311.176,257.937 312.195,257.937 314.688 M137.209 312.057 C 137.222 312.730,137.357 313.563,137.511 313.906 C 137.693 314.314,137.725 313.935,137.603 312.813 C 137.378 310.748,137.179 310.367,137.209 312.057 M108.442 314.557 C 108.445 315.059,108.582 315.680,108.746 315.938 C 108.949 316.257,108.984 316.007,108.853 315.156 C 108.616 313.612,108.436 313.349,108.442 314.557 M214.219 315.480 C 213.437 315.856,213.411 315.900,214.063 315.740 C 214.948 315.524,215.943 315.017,215.469 315.024 C 215.297 315.026,214.734 315.231,214.219 315.480 M137.866 315.625 C 137.882 316.437,138.374 317.771,138.384 317.031 C 138.389 316.688,138.273 316.125,138.125 315.781 C 137.960 315.398,137.860 315.338,137.866 315.625 M109.264 318.594 C 109.369 319.281,109.575 320.055,109.722 320.313 C 110.045 320.879,109.714 318.883,109.333 317.969 C 109.169 317.575,109.143 317.805,109.264 318.594 M138.794 319.375 C 138.794 319.633,138.915 320.125,139.063 320.469 C 139.232 320.863,139.331 320.920,139.331 320.625 C 139.331 320.367,139.210 319.875,139.063 319.531 C 138.893 319.137,138.794 319.080,138.794 319.375 M257.562 323.141 C 257.528 324.438,257.360 325.669,257.189 325.876 C 257.017 326.083,257.094 326.064,257.360 325.835 C 257.734 325.510,257.818 324.899,257.733 323.099 L 257.624 320.781 257.562 323.141 M139.569 322.344 C 139.681 322.859,139.895 323.492,140.046 323.750 C 140.222 324.050,140.248 323.881,140.118 323.281 C 140.007 322.766,139.792 322.133,139.641 321.875 C 139.465 321.575,139.439 321.744,139.569 322.344 M293.210 324.688 C 293.210 325.461,293.271 325.777,293.346 325.391 C 293.420 325.004,293.420 324.371,293.346 323.984 C 293.271 323.598,293.210 323.914,293.210 324.688 M110.819 324.531 C 110.931 325.047,111.145 325.680,111.296 325.938 C 111.472 326.237,111.498 326.069,111.368 325.469 C 111.257 324.953,111.042 324.320,110.891 324.063 C 110.715 323.763,110.689 323.931,110.819 324.531 M141.117 326.875 C 141.232 327.305,141.456 327.867,141.615 328.125 C 141.817 328.451,141.841 328.355,141.696 327.813 C 141.581 327.383,141.357 326.820,141.197 326.563 C 140.996 326.237,140.971 326.332,141.117 326.875 M111.606 326.875 C 111.606 327.133,111.727 327.625,111.875 327.969 C 112.044 328.363,112.144 328.420,112.144 328.125 C 112.144 327.867,112.023 327.375,111.875 327.031 C 111.706 326.637,111.606 326.580,111.606 326.875 M292.865 327.553 C 292.836 328.183,292.732 328.956,292.633 329.271 C 292.463 329.810,292.474 329.811,292.807 329.291 C 293.002 328.988,293.107 328.214,293.040 327.573 L 292.918 326.406 292.865 327.553 M266.318 328.125 C 266.315 328.555,266.425 329.258,266.563 329.688 C 266.899 330.738,266.899 329.603,266.563 328.281 C 266.348 327.439,266.323 327.423,266.318 328.125 M112.367 329.375 C 112.482 329.805,112.706 330.367,112.865 330.625 C 113.067 330.951,113.091 330.855,112.946 330.313 C 112.831 329.883,112.607 329.320,112.447 329.063 C 112.246 328.737,112.221 328.832,112.367 329.375 M142.670 331.016 C 142.787 331.402,143.011 331.856,143.169 332.024 C 143.326 332.192,143.296 331.876,143.103 331.321 C 142.707 330.186,142.342 329.928,142.670 331.016 M269.688 335.179 C 269.688 335.372,269.992 335.669,271.420 336.871 C 272.023 337.377,271.914 337.187,271.108 336.324 C 269.868 334.994,269.688 334.849,269.688 335.179 M114.876 335.910 C 115.194 337.118,115.961 338.830,116.116 338.676 C 116.194 338.598,115.902 337.774,115.468 336.845 C 115.033 335.916,114.767 335.496,114.876 335.910 M287.949 336.639 L 287.031 337.654 287.969 336.879 C 288.484 336.452,289.040 335.996,289.203 335.864 C 289.387 335.716,289.380 335.625,289.183 335.625 C 289.009 335.625,288.454 336.082,287.949 336.639 M273.750 338.305 C 273.750 338.516,275.373 339.106,275.528 338.951 C 275.599 338.880,275.228 338.673,274.703 338.490 C 274.179 338.307,273.750 338.224,273.750 338.305 M284.531 338.605 C 283.746 338.983,283.721 339.026,284.375 338.868 C 284.805 338.764,285.290 338.555,285.453 338.402 C 285.858 338.024,285.636 338.073,284.531 338.605 M116.272 339.219 C 116.272 339.391,116.473 339.883,116.719 340.313 C 116.964 340.742,117.165 340.953,117.165 340.781 C 117.165 340.609,116.964 340.117,116.719 339.688 C 116.473 339.258,116.272 339.047,116.272 339.219 M276.670 339.448 C 276.869 339.575,278.227 339.678,279.688 339.678 C 281.148 339.678,282.506 339.575,282.703 339.448 C 282.901 339.322,281.543 339.219,279.686 339.219 C 277.828 339.219,276.471 339.322,276.670 339.448 M117.813 342.612 C 117.813 342.952,119.990 347.188,120.164 347.188 C 120.250 347.188,119.810 346.168,119.186 344.922 C 118.016 342.584,117.813 342.242,117.813 342.612 M149.335 344.219 C 149.504 344.563,149.871 345.125,150.151 345.469 L 150.659 346.094 150.353 345.469 C 150.184 345.125,149.817 344.563,149.537 344.219 L 149.028 343.594 149.335 344.219 M204.219 344.230 C 203.437 344.606,203.411 344.650,204.063 344.490 C 204.948 344.274,205.943 343.767,205.469 343.774 C 205.297 343.776,204.734 343.981,204.219 344.230 M124.844 355.938 C 125.110 356.453,125.399 356.875,125.485 356.875 C 125.571 356.875,125.423 356.453,125.156 355.938 C 124.890 355.422,124.601 355.000,124.515 355.000 C 124.429 355.000,124.577 355.422,124.844 355.938 M128.654 362.212 C 128.965 362.740,129.418 363.338,129.663 363.540 C 129.907 363.741,129.712 363.309,129.230 362.578 C 128.219 361.044,127.820 360.790,128.654 362.212 M160.514 362.500 C 160.761 363.848,160.939 364.102,160.933 363.099 C 160.930 362.684,160.790 362.133,160.621 361.875 C 160.404 361.545,160.373 361.730,160.514 362.500 M130.272 364.531 C 130.441 364.875,130.808 365.438,131.088 365.781 L 131.597 366.406 131.290 365.781 C 131.121 365.438,130.754 364.875,130.474 364.531 L 129.966 363.906 130.272 364.531 M161.031 365.938 C 161.031 366.883,161.090 367.270,161.161 366.797 C 161.233 366.324,161.233 365.551,161.161 365.078 C 161.090 364.605,161.031 364.992,161.031 365.938 M132.188 367.500 C 132.555 368.016,132.925 368.438,133.011 368.438 C 133.097 368.438,132.867 368.016,132.500 367.500 C 132.133 366.984,131.762 366.563,131.676 366.563 C 131.590 366.563,131.820 366.984,132.188 367.500 M160.663 368.438 C 160.638 368.695,160.538 369.258,160.443 369.688 C 160.293 370.363,160.318 370.393,160.624 369.913 C 160.819 369.607,160.918 369.045,160.844 368.663 C 160.771 368.281,160.689 368.180,160.663 368.438 M134.375 370.625 C 134.742 371.141,135.113 371.563,135.199 371.563 C 135.285 371.563,135.055 371.141,134.688 370.625 C 134.320 370.109,133.950 369.688,133.864 369.688 C 133.778 369.688,134.008 370.109,134.375 370.625 M159.438 372.038 C 159.064 372.808,158.824 373.438,158.904 373.438 C 159.116 373.438,160.378 370.899,160.237 370.758 C 160.171 370.692,159.812 371.268,159.438 372.038 M157.017 375.391 L 155.781 376.719 157.109 375.483 C 158.345 374.335,158.581 374.063,158.345 374.063 C 158.294 374.063,157.696 374.660,157.017 375.391 M138.125 375.469 C 138.708 376.070,139.255 376.563,139.341 376.563 C 139.427 376.563,139.021 376.070,138.438 375.469 C 137.854 374.867,137.307 374.375,137.221 374.375 C 137.135 374.375,137.542 374.867,138.125 375.469 M154.305 377.313 C 152.852 378.176,152.580 378.440,153.351 378.238 C 153.879 378.100,156.026 376.556,155.625 376.603 C 155.539 376.613,154.945 376.933,154.305 377.313 M151.094 378.750 C 150.700 378.919,150.642 379.019,150.938 379.019 C 151.195 379.019,151.688 378.898,152.031 378.750 C 152.425 378.581,152.483 378.481,152.188 378.481 C 151.930 378.481,151.438 378.602,151.094 378.750 M146.388 379.391 C 147.215 379.638,149.334 379.507,149.661 379.189 C 149.733 379.119,148.819 379.075,147.630 379.089 C 145.873 379.111,145.641 379.168,146.388 379.391 " stroke="none" fill="#cadbe1" fill-rule="evenodd"></path></g></svg>